<svg width="383" height="379" viewBox="0 0 383 379" fill="none" xmlns="http://www.w3.org/2000/svg">
<path d="M196.5 360.814C299.48 360.814 382.962 280.085 382.962 180.5C382.962 80.915 299.48 0.185547 196.5 0.185547C93.5199 0.185547 10.0381 80.915 10.0381 180.5C10.0381 280.085 93.5199 360.814 196.5 360.814Z" fill="#00254C"/>
<path fill-rule="evenodd" clip-rule="evenodd" d="M279.772 21.5779C282.506 21.2608 285.274 21.1553 287.936 21.2153L287.903 22.7149C285.302 22.6563 282.604 22.7596 279.945 23.0679L279.772 21.5779ZM296.072 21.9397C297.522 22.1734 298.874 22.4551 300.09 22.7743L299.71 24.2252C298.546 23.9199 297.242 23.6476 295.834 23.4206L296.072 21.9397ZM264.272 26.7992C266.448 25.2561 269 24.0897 271.738 23.2321L272.186 24.6635C269.56 25.4862 267.158 26.5912 265.14 28.0227L264.272 26.7992ZM257.561 37.1743C257.809 35.7146 258.235 34.3695 258.818 33.1336L260.175 33.7734C259.652 34.8824 259.266 36.0954 259.04 37.4221C258.922 38.1781 258.863 38.9369 258.85 39.6978L257.351 39.6733C257.364 38.8479 257.429 38.0173 257.559 37.184L257.561 37.1743ZM258.268 46.9615C258.091 46.1776 257.926 45.383 257.785 44.5808L259.263 44.3226C259.398 45.095 259.558 45.8657 259.732 46.6346L259.733 46.638C260.051 48.0817 260.412 49.5712 260.797 51.0997L259.343 51.4663C258.955 49.9296 258.591 48.4247 258.268 46.9615ZM65.5709 57.3503C67.0445 57.2917 68.5164 57.2638 69.9864 57.2643L69.9858 58.7643C68.535 58.7638 67.0831 58.7914 65.63 58.8492L65.629 58.8492C64.3582 58.898 63.093 58.9774 61.8341 59.0868L61.7042 57.5925C62.9869 57.481 64.276 57.4 65.5709 57.3503ZM65.5709 57.3503C65.5711 57.3503 65.5713 57.3503 65.5715 57.3503L65.6002 58.0998L65.5704 57.3504C65.5706 57.3503 65.5708 57.3503 65.5709 57.3503ZM78.806 57.595C81.739 57.8088 84.6629 58.1204 87.5762 58.513L87.3759 59.9995C84.49 59.6107 81.5967 59.3024 78.697 59.0911L78.806 57.595ZM46.4894 60.3976C48.9661 59.694 51.4812 59.1038 54.029 58.6333L54.3014 60.1083C51.8006 60.5702 49.3313 61.1496 46.8993 61.8405L46.4894 60.3976ZM96.2741 59.9146C99.1595 60.4508 102.033 61.0508 104.894 61.6977L104.563 63.1608C101.718 62.5175 98.8638 61.9215 96 61.3893L96.2741 59.9146ZM263.696 69.3463C263.112 66.338 262.397 63.3402 261.651 60.3971L263.105 60.0285C263.854 62.9837 264.576 66.0122 265.169 69.0602L263.696 69.3463ZM32.0603 65.9653C34.374 64.8244 36.7386 63.7852 39.1481 62.8543L39.6886 64.2535C37.3215 65.168 34.9979 66.1892 32.7237 67.3106L32.0603 65.9653ZM113.442 63.7646C114.863 64.1278 116.28 64.4987 117.693 64.875L117.693 64.8751C119.014 65.2272 120.334 65.5856 121.654 65.9499L121.255 67.3959C119.939 67.0327 118.623 66.6754 117.307 66.3244C115.898 65.9492 114.485 65.5797 113.07 65.2178L113.442 63.7646ZM129.548 68.1968C132.17 68.9652 134.79 69.7539 137.406 70.5596L136.964 71.9931C134.355 71.1893 131.741 70.4027 129.126 69.6363L129.548 68.1968ZM18.8373 73.9789C20.9229 72.4578 23.071 71.0253 25.2759 69.688L26.0538 70.9706C23.8856 72.2856 21.7728 73.6945 19.7212 75.1908L18.8373 73.9789ZM145.231 73.0225C146.534 73.4406 147.834 73.8622 149.133 74.2869L149.135 74.2873C150.406 74.7054 151.674 75.1311 152.941 75.564L152.456 76.9834C151.195 76.5523 149.931 76.1284 148.666 75.7122C147.37 75.2884 146.072 74.8678 144.773 74.4507L145.231 73.0225ZM160.51 78.2401C163.023 79.1569 165.527 80.098 168.024 81.059L167.485 82.4589C164.996 81.5007 162.499 80.5628 159.996 79.6492L160.51 78.2401ZM264.785 87.4413C265.164 84.5075 265.186 81.4731 264.959 78.3882L266.455 78.2778C266.688 81.4398 266.668 84.5783 266.273 87.6337L264.785 87.4413ZM7.14702 84.0927C8.95369 82.2492 10.8342 80.481 12.7828 78.7945L13.7644 79.9287C11.8471 81.5882 9.99642 83.3282 8.21834 85.1426L7.14702 84.0927ZM175.49 83.9969C177.972 84.9936 180.448 86.0062 182.916 87.0304L182.341 88.4159C179.877 87.3936 177.408 86.3832 174.931 85.3889L175.49 83.9969ZM-2.73806 95.9758C-1.2542 93.8639 0.314642 91.8142 1.96264 89.833L3.11582 90.7923C1.49379 92.7422 -0.0503063 94.7596 -1.51072 96.8381L-2.73806 95.9758ZM190.309 90.1368C191.538 90.6592 192.766 91.1834 193.992 91.709C195.791 92.4586 197.584 93.2144 199.373 93.973L198.787 95.3539C196.999 94.5956 195.208 93.8406 193.412 93.0921L193.405 93.0891C192.179 92.5636 190.951 92.0395 189.722 91.5174L190.309 90.1368ZM260.182 99.9752C261.043 98.716 261.772 97.4142 262.384 96.0758L263.748 96.6993C263.102 98.1141 262.33 99.4913 261.419 100.823L261.418 100.824C260.707 101.86 259.93 102.812 259.094 103.682L258.012 102.643C258.791 101.832 259.517 100.943 260.182 99.9752ZM210.113 98.5456C211.901 99.3036 213.691 100.058 215.486 100.806C217.199 101.512 218.87 102.284 220.518 103.064L219.877 104.42C218.234 103.643 216.591 102.883 214.915 102.193L214.912 102.192C213.111 101.442 211.318 100.686 209.528 99.9266L210.113 98.5456ZM-10.5584 109.309C-9.44045 106.982 -8.22657 104.704 -6.92254 102.481L-5.62879 103.24C-6.91204 105.427 -8.10642 107.669 -9.20628 109.959L-10.5584 109.309ZM245.996 108.939C248.281 108.516 250.48 107.785 252.516 106.733L253.205 108.065C251.029 109.19 248.688 109.966 246.269 110.414L245.996 108.939ZM230.474 107.437C232.154 108.03 233.867 108.523 235.641 108.863C236.784 109.08 237.935 109.229 239.086 109.31L238.98 110.806C237.77 110.721 236.561 110.564 235.361 110.337L235.359 110.336C233.497 109.979 231.71 109.464 229.975 108.851L230.474 107.437ZM-14.9115 120.063C-14.5042 118.838 -14.0711 117.622 -13.6127 116.418L-12.2107 116.951C-12.6616 118.136 -13.0876 119.331 -13.4881 120.536L-13.4883 120.537C-13.9046 121.786 -14.2948 123.042 -14.6595 124.305L-16.1006 123.889C-15.7304 122.607 -15.3342 121.331 -14.9115 120.063ZM-19.3249 139.569C-18.9868 136.919 -18.5515 134.284 -18.0153 131.668L-16.5459 131.969C-17.0743 134.547 -17.5035 137.146 -17.8369 139.759L-19.3249 139.569ZM-20.2155 155.544C-20.251 152.873 -20.1972 150.204 -20.0502 147.542L-18.5525 147.624C-18.6975 150.252 -18.7507 152.887 -18.7156 155.524L-20.2155 155.544ZM-18.9639 171.488C-19.3407 168.847 -19.6357 166.194 -19.8454 163.537L-18.3501 163.419C-18.1428 166.044 -17.8513 168.665 -17.4789 171.276L-18.9639 171.488ZM-16.7296 183.273C-17.0366 181.976 -17.3244 180.674 -17.5927 179.368L-16.1234 179.066C-15.8582 180.357 -15.5736 181.644 -15.2702 182.926C-14.9424 184.303 -14.5937 185.677 -14.2246 187.05L-15.6731 187.439C-16.046 186.053 -16.3982 184.664 -16.7294 183.273L-16.7296 183.273ZM-10.3034 203.76C-11.345 201.083 -12.3149 198.386 -13.2087 195.674L-11.7841 195.204C-10.8987 197.891 -9.93777 200.564 -8.90549 203.217L-10.3034 203.76ZM-3.2796 219.434C-4.57868 216.879 -5.81545 214.294 -6.98575 211.685L-5.61709 211.071C-4.4569 213.658 -3.23069 216.221 -1.94251 218.754L-3.2796 219.434ZM5.22242 234.355C3.6912 231.94 2.21408 229.485 0.795151 226.995L2.09834 226.252C3.50557 228.721 4.97058 231.156 6.48927 233.552L5.22242 234.355ZM15.088 248.411C13.3404 246.155 11.6396 243.85 9.98963 241.498L11.2175 240.637C12.8539 242.969 14.5407 245.255 16.2737 247.492L15.088 248.411ZM356.498 248.522C353.597 248.583 351.048 248.929 348.767 249.522L348.389 248.071C350.797 247.444 353.465 247.085 356.467 247.022L356.498 248.522ZM368.274 249.539C366.908 249.305 365.599 249.113 364.343 248.961L364.524 247.472C365.806 247.627 367.139 247.823 368.527 248.061L368.274 249.539ZM341.693 252.586C339.537 253.959 337.612 255.651 335.777 257.619L334.68 256.596C336.579 254.559 338.6 252.777 340.887 251.321L341.693 252.586ZM23.3425 258.301C22.3881 257.24 21.4442 256.163 20.5112 255.072L21.6511 254.097C22.5761 255.179 23.5119 256.246 24.458 257.298C25.2553 258.185 26.0685 259.07 26.8971 259.951L25.8045 260.979C24.9678 260.089 24.147 259.196 23.3425 258.301L23.9002 257.8L23.3425 258.301ZM327.052 269.051C326.776 269.447 326.498 269.846 326.216 270.249L324.986 269.39C325.266 268.99 325.543 268.593 325.817 268.199C327.116 266.338 328.363 264.55 329.598 262.864L330.808 263.75C329.585 265.421 328.35 267.191 327.052 269.051ZM36.3224 271.048C34.4648 269.467 32.6639 267.83 30.9215 266.157L31.9604 265.075C33.6831 266.729 35.4617 268.346 37.2944 269.905L36.3224 271.048ZM133.798 268.443C132.525 268.268 131.282 268.191 130.067 268.201L130.054 266.701C131.342 266.69 132.657 266.772 134.002 266.957L133.9 267.7L134.002 266.957C134.002 266.957 134.002 266.957 134.002 266.957C135.692 267.187 137.348 267.552 138.965 268.032L138.537 269.47C136.99 269.01 135.409 268.662 133.799 268.443L133.798 268.443ZM122.684 269.328C120.295 270.03 117.984 271.025 115.718 272.215L115.021 270.887C117.352 269.663 119.755 268.625 122.261 267.889L122.684 269.328ZM151.448 276.198C150.146 275.215 148.796 274.295 147.403 273.453L148.179 272.169C149.618 273.039 151.01 273.989 152.351 275C153.314 275.717 154.251 276.465 155.161 277.243L154.186 278.383C153.301 277.626 152.39 276.898 151.453 276.202L151.448 276.198ZM48.0996 279.655C46.0255 278.388 44.0047 277.022 42.0391 275.578L42.9269 274.369C44.8612 275.79 46.8467 277.131 48.8816 278.375L48.0996 279.655ZM109.194 276.15C108.136 276.855 107.083 277.58 106.03 278.314C104.791 279.182 103.534 280.014 102.258 280.802L101.47 279.526C102.719 278.754 103.952 277.938 105.17 277.085L105.171 277.085C106.229 276.347 107.292 275.615 108.362 274.902L109.194 276.15ZM321.548 276.752C320.022 278.796 318.377 280.901 316.569 283.047L315.422 282.08C317.207 279.961 318.834 277.88 320.346 275.854L321.548 276.752ZM61.2968 285.944C58.9863 285.153 56.7271 284.217 54.521 283.158L55.1703 281.805C57.3271 282.841 59.5318 283.755 61.7827 284.525L61.2968 285.944ZM163.518 288.769C162.188 286.847 160.742 285.01 159.185 283.273L160.302 282.272C161.902 284.056 163.387 285.943 164.751 287.916L163.518 288.769ZM94.246 285.019C91.4507 286.226 88.5726 287.185 85.6092 287.831L85.2896 286.366C88.1485 285.742 90.9345 284.815 93.6515 283.642L94.246 285.019ZM72.0042 288.444C70.7843 288.292 69.5763 288.096 68.3801 287.859L68.6718 286.388C69.8345 286.618 71.0083 286.808 72.1928 286.956L72.1962 286.956C73.6741 287.147 75.1328 287.247 76.5727 287.265L76.5542 288.765C75.0565 288.747 73.54 288.642 72.0042 288.444ZM311.179 289.007C310.264 289.948 309.312 290.893 308.32 291.841C307.489 292.639 306.666 293.445 305.852 294.261L304.79 293.201C305.612 292.378 306.442 291.564 307.281 290.759L307.282 290.757C308.262 289.822 309.201 288.889 310.104 287.961L311.179 289.007ZM170.044 301.137C169.202 298.955 168.234 296.824 167.146 294.759L168.474 294.059C169.589 296.176 170.581 298.361 171.443 300.598L170.044 301.137ZM301.069 299.254C299.51 300.95 297.985 302.679 296.494 304.438L295.349 303.469C296.853 301.694 298.392 299.95 299.965 298.239L301.069 299.254ZM173.545 314.683C173.225 312.369 172.77 310.073 172.185 307.809L173.637 307.434C174.237 309.753 174.703 312.106 175.031 314.478L173.545 314.683ZM292.127 309.801C290.707 311.616 289.321 313.46 287.97 315.329L286.755 314.45C288.116 312.566 289.513 310.707 290.946 308.877L292.127 309.801ZM284.025 321.01C283.385 321.969 282.754 322.934 282.132 323.905L281.5 323.5L282.132 323.905C281.375 325.084 280.649 326.277 279.947 327.48L278.652 326.723C279.363 325.506 280.099 324.295 280.869 323.095C281.496 322.117 282.132 321.144 282.777 320.177L284.025 321.01ZM174.051 325.167C174.1 324.001 174.114 322.834 174.092 321.666L175.592 321.638C175.614 322.836 175.6 324.035 175.55 325.231L175.549 325.233C175.499 326.38 175.432 327.531 175.355 328.681L173.858 328.582C173.934 327.439 174.001 326.3 174.051 325.167ZM274.629 337.288C273.748 338.976 272.869 340.662 271.972 342.327L270.652 341.616C271.543 339.959 272.415 338.288 273.292 336.606C273.718 335.79 274.145 334.972 274.576 334.152L275.904 334.849C275.477 335.661 275.053 336.475 274.629 337.288ZM173.055 342.349C173.082 340.053 173.208 337.743 173.365 335.439L174.861 335.541C174.705 337.833 174.581 340.111 174.555 342.367L173.055 342.349ZM267.732 349.683C266.223 352.079 264.594 354.406 262.772 356.621L261.613 355.668C263.387 353.512 264.98 351.239 266.463 348.884L267.732 349.683ZM174.729 356.174C174.04 353.922 173.607 351.626 173.354 349.305L174.845 349.142C175.09 351.386 175.507 353.588 176.164 355.736L174.729 356.174ZM256.809 362.758C255.745 363.677 254.624 364.562 253.437 365.41C252.337 366.196 251.213 366.95 250.067 367.671L249.268 366.401C250.39 365.696 251.489 364.959 252.564 364.19L252.564 364.189C253.713 363.369 254.799 362.512 255.829 361.623L256.809 362.758ZM179.501 365.551C178.774 364.589 178.123 363.612 177.542 362.62L178.836 361.862C179.388 362.803 180.006 363.732 180.698 364.647L180.7 364.65C181.469 365.675 182.306 366.637 183.202 367.536L182.14 368.595C181.196 367.648 180.313 366.634 179.501 365.551ZM242.964 371.585C240.529 372.752 238.025 373.784 235.472 374.679L234.976 373.263C237.478 372.387 239.931 371.375 242.316 370.232L242.964 371.585ZM195.8 376.767C193.249 375.931 190.791 374.841 188.499 373.491L189.26 372.199C191.452 373.49 193.811 374.536 196.267 375.342L195.8 376.767ZM227.69 376.944C225.055 377.56 222.389 378.034 219.71 378.364L219.527 376.875C222.152 376.552 224.765 376.087 227.348 375.483L227.69 376.944ZM207.57 378.849C206.244 378.799 204.915 378.688 203.591 378.518L203.783 377.03C205.062 377.195 206.347 377.301 207.629 377.35L207.633 377.35C208.953 377.409 210.277 377.429 211.604 377.412L211.622 378.912C210.269 378.929 208.917 378.908 207.57 378.849Z" fill="#007AFF"/>
<path d="M190.4 121.388C190.4 131.912 188.506 142.015 185.033 151.382C183.98 154.118 182.928 156.749 181.665 159.275C179.245 164.221 176.298 168.957 173.035 173.272C170.931 176.113 168.615 178.849 166.09 181.48C160.196 187.584 153.356 192.846 145.778 197.056C145.568 197.161 145.463 197.266 145.252 197.372C132.939 204.107 118.837 207.896 103.893 207.896C92.1056 207.896 80.8449 205.58 70.6366 201.266C67.7951 200.108 64.9536 198.74 62.2174 197.266C62.1121 197.161 62.0069 197.161 61.7964 197.056C50.7462 201.476 32.6448 208.422 32.0134 208.632L41.1693 182.533L41.5903 181.375C39.8012 179.481 38.0121 177.481 36.4335 175.482C33.9077 172.324 31.4872 168.852 29.3824 165.273C27.8038 162.642 26.4357 159.906 25.1728 157.065C24.5413 155.802 24.0151 154.434 23.4889 153.066C21.6998 148.54 20.3317 143.91 19.2793 139.069C18.1217 133.386 17.4902 127.387 17.4902 121.283C17.4902 83.2912 42.0112 50.9824 76.1091 39.4059C76.2143 39.4059 76.3196 39.3007 76.4248 39.3007H76.5301H76.6353C77.4772 38.985 78.2139 38.7745 79.0558 38.564C79.6873 38.3535 80.424 38.143 81.0554 37.9326C82.7392 37.5116 84.3179 37.0906 86.0017 36.7749C86.3174 36.6697 86.6331 36.6697 86.9489 36.5644C87.5803 36.4592 88.2117 36.354 88.9484 36.2487C91.4742 35.8278 94.1052 35.512 96.7362 35.3016C99.0515 35.0911 101.472 34.9858 103.893 34.9858C104.629 34.9858 105.261 34.9858 105.997 34.9858C106.945 34.9858 107.892 35.0911 108.839 35.0911C110.523 35.1963 112.101 35.3016 113.785 35.512C115.89 35.7225 117.89 36.0382 119.994 36.4592C121.573 36.7749 123.257 37.0906 124.835 37.5116C125.362 37.6169 125.993 37.8273 126.519 37.9326C126.519 37.9326 126.519 37.9326 126.624 37.9326C126.73 37.9326 126.835 37.9326 126.94 38.0378C163.564 48.0356 190.4 81.6073 190.4 121.388Z" fill="white"/>
<path d="M185.664 118.231C185.664 128.755 183.77 138.858 180.297 148.224C179.245 150.961 178.192 153.592 176.929 156.117C174.509 161.064 171.562 165.8 168.3 170.114C166.195 172.956 163.88 175.692 161.354 178.323C155.46 184.427 148.62 189.689 141.042 193.899C140.832 194.004 140.727 194.109 140.516 194.214C128.203 200.95 114.101 204.739 99.1567 204.739C87.3698 204.739 76.1091 202.423 65.9008 198.108C63.0593 196.951 60.2178 195.583 57.4815 194.109C57.3763 194.004 57.2711 194.004 57.0606 193.899C46.0103 198.319 27.909 205.265 27.2776 205.475L36.4335 179.376L36.8544 178.218C35.0653 176.324 33.2763 174.324 31.6977 172.324C29.1719 169.167 26.7514 165.694 24.6466 162.116C23.0679 159.485 21.6998 156.749 20.4369 153.907C19.8055 152.645 19.2793 151.276 18.7531 149.908C16.964 145.383 15.5959 140.752 14.5435 135.911C13.3858 130.228 12.7544 124.23 12.7544 118.126C12.7544 80.1339 37.2754 47.8251 71.3733 36.2487C71.4785 36.2487 71.5837 36.1435 71.689 36.1435H71.7942H71.8995C72.7414 35.8277 73.4781 35.6173 74.32 35.4068C74.9514 35.1963 75.6881 34.9858 76.3196 34.7753C78.0034 34.3544 79.582 33.9334 81.2659 33.6177C81.5816 33.5125 81.8973 33.5125 82.213 33.4072C82.8445 33.302 83.4759 33.1967 84.2126 33.0915C86.7384 32.6705 89.3694 32.3548 92.0004 32.1443C94.3157 31.9339 96.7362 31.8286 99.1567 31.8286C99.8934 31.8286 100.525 31.8286 101.262 31.8286C102.209 31.8286 103.156 31.9339 104.103 31.9339C105.787 32.0391 107.365 32.1443 109.049 32.3548C111.154 32.5653 113.154 32.881 115.258 33.302C116.837 33.6177 118.521 33.9334 120.1 34.3544C120.626 34.4596 121.257 34.6701 121.783 34.7753C121.783 34.7753 121.783 34.7753 121.889 34.7753C121.994 34.7753 122.099 34.7753 122.204 34.8806C158.828 44.9837 185.664 78.4501 185.664 118.231Z" fill="#007AFF"/>
<path d="M139.78 101.288C141.884 104.234 143.674 106.971 145.463 109.917C147.252 112.759 148.936 115.706 150.619 118.652C153.882 124.546 156.934 130.65 159.565 136.859C160.933 140.016 162.196 143.173 163.353 146.33C163.985 147.909 164.511 149.593 165.037 151.172C165.248 152.013 165.563 152.75 165.879 153.697C166.09 154.644 166.405 155.697 166.511 156.855C166.721 158.012 166.826 159.17 166.826 160.854C166.826 161.696 166.826 162.643 166.511 163.906C166.195 165.168 165.774 166.958 164.195 168.957C163.353 169.904 162.301 170.851 161.143 171.378C159.986 172.009 158.828 172.22 157.881 172.325C155.987 172.535 154.724 172.22 153.777 172.009C151.882 171.483 150.83 170.746 149.777 170.115C147.883 168.852 146.515 167.484 145.252 166.01C143.989 164.537 142.937 163.274 141.884 161.59L148.725 153.908C149.672 154.013 153.566 154.329 155.987 155.802C156.302 156.013 157.25 156.539 157.25 156.539C157.25 156.539 156.723 156.223 156.302 156.013C157.25 156.013 157.46 156.013 157.46 156.013C157.46 156.013 156.513 156.013 155.46 156.223C154.829 156.328 154.198 156.434 153.356 156.855C152.619 157.275 151.777 157.907 151.251 158.538C150.093 159.906 149.883 160.854 149.777 161.275C149.672 161.801 149.672 161.906 149.567 161.906C149.462 162.011 149.356 161.59 149.041 161.169L148.304 159.591C147.988 159.065 147.673 158.223 147.462 157.591C146.831 156.223 146.305 154.75 145.673 153.382C144.41 150.645 143.147 147.804 141.674 145.068C138.832 139.595 135.886 134.123 132.728 128.755C131.15 126.124 129.571 123.388 127.887 120.757C126.309 118.126 124.52 115.39 123.046 113.075L139.78 101.288Z" fill="#FFA07F"/>
<path d="M134.622 88.8692C121.046 85.7119 112.838 94.3417 116.837 111.391C119.047 120.757 123.151 132.123 126.098 140.016C126.94 142.121 127.571 144.015 128.203 145.488L159.038 128.334C155.776 114.864 143.778 90.974 134.622 88.8692Z" fill="white"/>
<path opacity="0.1" d="M135.254 104.971C127.045 97.7092 135.465 127.282 138.832 139.7L147.883 134.649C147.041 126.019 141.569 110.549 135.254 104.971Z" fill="#131313"/>
<path d="M143.989 153.382C143.989 155.381 143.989 157.381 143.884 159.38C143.884 161.064 143.779 162.748 143.674 164.432V164.642C143.253 173.693 142.411 183.48 141.043 194.004C140.832 194.11 140.727 194.215 140.516 194.32C128.203 201.056 114.101 204.844 99.157 204.844C87.37 204.844 76.1093 202.529 65.901 198.214C66.1115 191.479 66.4272 182.007 66.4272 170.641C66.4272 165.484 66.4272 159.907 66.2167 154.118C66.2167 153.592 66.2167 152.961 66.2167 152.435C66.1115 150.119 66.0062 147.804 65.901 145.489C65.7958 144.015 65.7958 142.647 65.6905 141.174C65.6905 140.227 65.5853 139.279 65.48 138.332C65.3748 136.333 65.1643 134.228 65.0591 132.123C64.7434 128.019 64.3224 123.914 63.7962 119.705C63.1648 113.917 62.3228 108.023 61.2704 102.13C60.7442 98.9724 60.1128 95.9204 59.4813 92.7632C59.1656 91.2899 58.8499 89.8165 58.5342 88.3431C58.7447 88.3431 58.8499 88.2379 59.0604 88.2379C59.3761 88.2379 59.7971 88.1327 60.218 88.0274C60.3233 88.0274 60.4285 88.0274 60.5337 87.9222C62.1123 87.6065 64.6381 87.1855 67.5848 86.7645C71.6892 86.1331 76.7408 85.5017 81.7923 85.2912C82.2133 85.2912 82.6342 85.2912 82.9499 85.1859C91.7901 84.765 104.208 84.4493 112.522 85.0807C113.049 85.0807 113.575 85.1859 113.996 85.1859C118.732 85.6069 123.467 86.4488 127.151 87.0803C131.361 87.9222 133.992 88.6589 134.518 88.8693C134.623 88.8693 134.623 88.8693 134.623 88.8693C134.623 88.8693 136.517 93.3947 138.622 102.13C139.359 105.182 140.095 108.655 140.832 112.759C141.99 119.494 143.042 127.598 143.568 137.069C143.779 141.279 143.989 145.699 143.989 150.33C143.989 151.277 143.989 152.329 143.989 153.382Z" fill="white"/>
<path d="M140.095 151.592C140.095 151.592 137.569 147.278 135.149 145.909C133.36 144.857 132.097 143.91 131.255 143.278C130.729 142.857 129.887 143.173 129.782 143.91C129.676 144.962 130.097 146.751 132.728 149.277C132.939 152.645 137.885 156.328 137.885 156.328L140.095 151.592Z" fill="#FFA07F"/>
<path d="M128.94 159.801H113.68L124.204 129.808H139.464L128.94 159.801Z" fill="#131313"/>
<path d="M129.887 159.801H114.732L125.256 129.808H140.411L129.887 159.801Z" fill="#007AFF"/>
<path opacity="0.1" d="M66.2166 152.329C65.5852 134.123 63.7961 113.39 59.376 92.6581C64.217 92.2371 72.6363 92.7633 73.8991 100.656C75.3725 109.076 73.3729 129.071 66.2166 152.329Z" fill="#131313"/>
<path d="M72.7417 105.602L64.9539 132.228L61.06 145.489L59.1657 152.119L58.2185 155.486L57.7976 157.17L57.6923 157.381C57.6923 157.486 57.6923 157.275 57.6923 157.275C57.6923 157.17 57.6923 157.065 57.6923 156.96C57.6923 156.644 57.6923 156.328 57.6923 155.907C57.5871 155.171 57.1661 154.118 56.7451 153.487C56.3242 152.855 55.798 152.54 55.5875 152.329C55.0613 152.119 55.377 152.434 55.9032 152.54C56.9556 152.961 58.85 153.382 60.8495 153.592C64.8487 154.118 69.2687 154.224 73.6888 154.118C82.6343 154.013 92.0007 153.487 101.051 152.855L103.051 162.958C93.7897 165.8 84.5286 168.115 74.8465 169.589C70.0054 170.325 65.0591 170.851 59.6919 170.851C56.9556 170.746 54.2194 170.641 50.7464 169.799C49.0626 169.273 47.063 168.747 44.7477 167.168C43.5901 166.431 42.3272 165.169 41.1696 163.59C40.0119 162.011 39.2753 159.801 39.0648 157.907C38.9595 156.855 38.9595 156.013 39.0648 155.065C39.0648 154.644 39.17 154.224 39.2752 153.908L39.3805 153.171L39.6962 151.382L40.3277 147.804C40.7486 145.489 41.2748 143.068 41.801 140.753C42.7482 136.122 43.8006 131.492 44.9582 126.861C47.2735 117.6 49.7993 108.549 52.6408 99.4985L72.7417 105.602Z" fill="#FFA07F"/>
<path d="M58.4288 88.2379C49.2729 90.3427 39.0646 114.337 35.4864 127.808C34.855 130.124 34.434 132.123 34.013 133.596C33.4868 135.596 33.2764 136.754 33.2764 136.754L63.9013 145.489C64.5327 144.015 65.2694 142.121 66.1114 140.016C69.2686 132.123 73.4782 120.757 75.7935 111.391C80.2136 94.3418 72.1101 85.0806 58.4288 88.2379Z" fill="white"/>
<path d="M98.9462 153.487L113.575 145.91L110.944 162.959C110.944 162.959 98.9462 166.221 97.7886 159.907L98.9462 153.487Z" fill="#FFA07F"/>
<path d="M108.944 148.33C108.944 148.33 112.101 144.541 114.837 143.489C116.732 142.752 118.626 141.279 119.468 140.858C120.099 140.542 120.836 140.963 120.836 141.7C120.836 142.752 119.678 145.068 116.626 147.172C115.89 150.435 110.312 153.382 110.312 153.382L108.944 148.33Z" fill="#FFA07F"/>
<path d="M125.572 148.225L123.467 158.854C123.256 159.801 122.625 160.538 121.678 160.643L110.943 162.853L113.574 145.91L123.151 145.383C124.73 145.489 125.887 146.857 125.572 148.225Z" fill="#FFA07F"/>
<path d="M97.8936 159.907L98.946 153.487L113.574 145.91L97.8936 159.907Z" fill="#FFA07F"/>
<path d="M146.515 154.855L134.833 147.804L133.991 162.958C133.991 162.958 146.304 167.694 147.462 161.38L146.515 154.855Z" fill="#FFA07F"/>
<path d="M129.571 148.014L128.624 159.906C128.624 160.538 128.94 161.169 129.571 161.38L133.991 162.853L134.833 147.698L131.466 146.541C130.624 146.33 129.676 146.962 129.571 148.014Z" fill="#FFA07F"/>
<path d="M116.101 97.6038C115.048 101.077 112.522 103.076 111.47 103.813C95.3683 96.9723 81.687 85.1854 81.687 85.1854C88.5276 78.45 86.1071 60.2434 83.7918 50.2456L92.0006 57.1915C96.8416 60.033 101.683 62.9797 106.524 65.8212C105.892 66.9788 105.05 68.9784 104.84 71.3989C104.84 71.9251 104.735 72.767 104.735 73.8194C104.735 75.6085 105.156 77.9238 106.629 80.2391C108.523 83.1858 111.154 84.4487 112.417 84.9749C115.995 88.4479 117.469 93.2889 116.101 97.6038Z" fill="#FFA07F"/>
<path d="M104.839 71.3993C104.839 71.9255 104.734 72.7675 104.734 73.8199C100.419 71.9255 97.4726 69.6103 95.5783 67.9264C92.2106 64.9797 91.5792 63.1906 91.3687 61.8225C91.1582 60.2439 91.8949 58.3495 92.0001 57.1919C96.8412 60.0334 101.682 62.9801 106.523 65.8216C105.997 66.9792 105.155 68.8736 104.839 71.3993Z" fill="#FF7D6F"/>
<path d="M124.414 18.4633C128.308 24.6724 120.941 42.6686 111.47 41.4057C102.103 40.0375 116.942 6.67635 124.414 18.4633Z" fill="#131313"/>
<path d="M84.6339 30.0399C84.4235 33.1971 84.9497 34.1443 85.1601 36.2491C85.2654 37.6172 85.2654 38.5644 85.1601 39.8273C84.7392 44.1421 83.6868 44.6683 83.5815 47.8256C83.5815 49.8251 84.0025 51.4037 84.3182 52.5614C85.1601 55.6133 86.5283 57.7182 87.265 58.6653C88.3174 60.1387 90.7379 63.0854 94.8423 64.8745C96.3156 65.5059 101.262 67.716 107.05 66.0321C113.891 64.0326 117.048 58.2444 117.89 56.771C119.153 54.3505 119.679 51.7195 120.626 46.4574C121.258 42.774 121.573 39.8273 121.679 38.0382C121.679 37.512 121.679 36.5648 121.784 34.6705C121.889 30.8819 121.784 30.0399 121.468 28.8823C121.468 28.8823 121.152 27.6194 120.31 26.146C117.995 22.1469 110.523 18.7792 92.6322 14.4644C91.8955 14.3591 86.0021 12.991 84.6339 30.0399Z" fill="#FFA07F"/>
<path d="M116.206 40.6689C115.996 41.7213 116.417 42.7737 117.153 42.879C117.89 42.9842 118.627 42.2475 118.837 41.1951C119.048 40.1427 118.627 39.0903 117.89 38.9851C117.153 38.8799 116.417 39.6165 116.206 40.6689Z" fill="#131313"/>
<path d="M103.998 38.0376C103.788 39.09 104.209 40.1424 104.945 40.2476C105.682 40.3529 106.419 39.6162 106.629 38.5638C106.84 37.5114 106.419 36.459 105.682 36.3537C104.945 36.2485 104.209 36.9852 103.998 38.0376Z" fill="#131313"/>
<path d="M112.838 54.4555C112.838 54.4555 100.42 62.138 97.894 48.562L112.838 54.4555Z" fill="#D53F36"/>
<path d="M112.838 54.4552C112.838 54.4552 110.733 55.8234 107.997 56.3496C107.26 55.0867 106.208 54.0343 105.155 53.1924C104.419 52.6662 103.577 52.2452 102.735 51.8242C101.472 51.298 99.9986 50.8771 98.5252 50.6666C98.3147 50.0352 98.1043 49.2985 97.999 48.4565L100.63 49.5089L110.944 53.6133L112.838 54.4552Z" fill="#7C130E"/>
<path d="M110.839 53.6137C109.155 54.3503 107.05 54.0346 105.156 53.1927C104.314 52.7717 103.472 52.3508 102.735 51.8246C101.683 51.0879 100.946 50.246 100.63 49.5093L110.839 53.6137Z" fill="white"/>
<path d="M112.207 40.4585C112.207 40.4585 113.469 47.2991 115.574 50.8773C113.364 52.2454 110.207 50.772 110.207 50.772L112.207 40.4585Z" fill="#FC6A5A"/>
<path d="M109.049 33.4073C108.944 33.8283 107.26 33.6178 105.366 33.9335C103.472 34.144 101.893 34.6702 101.683 34.3545C101.577 34.144 101.788 33.723 102.419 33.3021C103.051 32.8811 103.998 32.4601 105.156 32.3549C106.313 32.2497 107.366 32.3549 108.102 32.6706C108.734 32.8811 109.049 33.1968 109.049 33.4073Z" fill="#131313"/>
<path d="M121.047 35.3014C120.731 35.6171 119.679 35.1961 118.31 34.9856C116.942 34.7752 115.785 34.9856 115.574 34.5647C115.469 34.3542 115.679 34.0385 116.206 33.7227C116.732 33.407 117.574 33.1966 118.521 33.3018C119.468 33.407 120.205 33.828 120.626 34.249C121.047 34.7752 121.152 35.0909 121.047 35.3014Z" fill="#131313"/>
<path d="M83.0553 40.4586C90.0012 39.6166 94.9475 28.0402 93.5793 22.6729C98.6309 26.4616 139.043 31.0922 132.939 4.67684C121.363 4.67684 73.268 2.57203 81.2662 12.8856C75.7937 12.9908 70.5317 17.9371 74.2151 29.5136C78.0038 41.4057 83.0553 40.4586 83.0553 40.4586Z" fill="#131313"/>
<path d="M77.1616 42.1423C78.4245 45.6152 80.9503 48.2463 83.476 49.6144C87.1594 51.6139 89.3695 48.2463 88.6328 44.0366C87.8961 40.248 85.1599 34.565 81.266 34.2493C77.4773 34.0388 75.6882 38.2484 77.1616 42.1423Z" fill="#FFA07F"/>
<path fill-rule="evenodd" clip-rule="evenodd" d="M80.4719 37.8299C80.6349 37.607 80.9478 37.5584 81.1707 37.7214L85.6401 40.9901L84.231 45.8883C84.1547 46.1536 83.8777 46.3069 83.6123 46.2305C83.3469 46.1542 83.1937 45.8772 83.27 45.6118L84.486 41.3849L80.5804 38.5286C80.3575 38.3656 80.3089 38.0528 80.4719 37.8299Z" fill="#FF7D6F"/>
<path d="M350.526 305.854L361.326 336.629C361.326 336.629 338.293 327.741 327.684 323.44C324.817 324.969 321.758 326.403 318.7 327.645C308.665 331.659 297.674 333.857 286.205 333.857C274.449 333.857 263.267 331.564 253.04 327.358C252.849 327.263 252.563 327.167 252.371 327.072C247.688 325.16 243.196 322.771 238.991 320.095C214.524 304.516 198.276 277.086 198.276 245.833C198.276 206.935 223.604 173.866 258.584 162.302C261.355 161.346 264.223 160.581 267.09 159.912C267.568 159.817 268.046 159.721 268.523 159.625C274.258 158.479 280.184 157.81 286.3 157.81C287.734 157.81 289.168 157.81 290.601 157.905C291.652 157.905 292.799 158.001 293.851 158.096C297.1 158.383 300.35 158.861 303.504 159.434C343.836 167.463 374.324 203.016 374.324 245.738C374.133 269.058 365.149 290.084 350.526 305.854Z" fill="white"/>
<path d="M353.202 307.383L364.002 338.158C364.002 338.158 340.969 329.269 330.36 324.969C327.493 326.498 324.435 327.931 321.376 329.174C311.341 333.188 300.35 335.386 288.881 335.386C277.125 335.386 265.943 333.092 255.717 328.887C255.526 328.792 255.239 328.696 255.048 328.6C250.365 326.689 245.873 324.3 241.667 321.624C217.2 306.045 200.953 278.615 200.953 247.362C200.953 208.464 226.28 175.395 261.26 163.83C264.032 162.875 266.899 162.11 269.766 161.441C270.244 161.345 270.722 161.25 271.2 161.154C276.934 160.007 282.86 159.338 288.977 159.338C290.41 159.338 291.844 159.338 293.277 159.434C294.329 159.434 295.476 159.53 296.527 159.625C299.776 159.912 303.026 160.39 306.18 160.963C346.512 168.991 377 204.545 377 247.267C376.905 270.682 367.921 291.709 353.202 307.383Z" fill="#007AFF"/>
<path d="M255.717 328.983C256.099 327.167 256.386 325.256 256.481 323.153L256.768 315.794L258.393 283.49L258.488 280.718L258.775 274.888V274.123L259.54 257.971L250.842 257.398L246.542 257.111H246.446L243.005 256.92C242.719 261.603 242.432 266.286 242.241 270.874C241.954 275.939 241.763 281.1 241.667 286.166C241.381 295.914 241.285 305.758 241.381 315.507L241.476 321.624C245.681 324.3 250.173 326.689 254.857 328.601L255.717 328.983Z" fill="#FFA07F"/>
<path d="M248.357 238.283C241.667 240.004 237.08 267.338 237.08 267.338L255.43 279.763C255.43 279.763 273.016 252.142 267.854 244.878C262.502 237.232 258.106 235.798 248.357 238.283Z" fill="#F8F8F8"/>
<path opacity="0.1" d="M249.026 244.4L243.865 272.021L254.187 278.998L249.026 244.4Z" fill="#131313"/>
<path d="M255.717 328.983C265.943 333.189 277.126 335.482 288.881 335.482C300.35 335.482 311.341 333.284 321.376 329.27C321.281 326.116 321.185 323.058 321.185 319.999C321.185 315.507 321.281 310.92 321.472 306.141C321.95 298.304 322.906 289.607 324.722 278.807C325.199 276.035 325.677 273.072 326.251 270.014C326.92 266.573 327.589 262.942 328.449 259.023C329.787 252.62 331.316 245.643 333.132 237.806C333.037 237.806 333.036 237.806 332.941 237.806C332.75 237.71 332.272 237.71 331.603 237.519C327.684 236.754 316.598 234.747 305.32 234.174C294.329 233.6 285.249 233.314 275.596 234.174C267.568 234.938 258.775 236.372 253.423 237.328C253.423 237.328 253.423 237.328 253.328 237.328C250.938 237.806 249.218 238.092 248.549 238.188H248.453C248.358 238.188 248.262 238.188 248.262 238.188C248.071 238.283 245.873 240.004 246.446 257.016C246.446 257.112 246.446 257.207 246.446 257.207C246.637 261.795 247.02 267.434 247.689 274.506C248.931 287.409 251.129 304.899 254.857 328.601L255.717 328.983Z" fill="#F8F8F8"/>
<path d="M267.664 306.906H283.911L272.633 274.888H256.386L267.664 306.906Z" fill="#131313"/>
<path d="M266.517 306.906H282.764L271.582 274.888H255.334L266.517 306.906Z" fill="#007AFF"/>
<path d="M340.778 256.633C342.689 265.808 344.027 274.888 345.174 284.159C346.321 293.429 347.086 302.7 347.181 312.162V313.022C347.181 313.022 347.181 313.691 347.181 313.978C347.181 314.36 347.181 314.742 347.086 315.316C346.895 317.132 345.748 319.617 343.932 321.146C342.212 322.675 340.396 323.249 339.153 323.535C337.815 323.822 336.764 323.918 335.808 323.822C333.897 323.822 332.463 323.535 331.029 323.249C329.596 322.962 328.353 322.58 327.111 322.197C322.237 320.668 317.936 318.661 313.635 316.558C305.224 312.258 297.196 307.67 289.455 302.413L293.373 295.245C297.483 296.966 301.688 298.686 305.893 300.311C310.099 302.031 314.304 303.656 318.414 305.089C322.523 306.619 326.824 307.957 330.647 308.817C331.603 309.008 332.559 309.199 333.419 309.295C334.279 309.39 335.044 309.39 335.426 309.39C335.617 309.39 335.713 309.295 335.521 309.39C335.33 309.39 334.661 309.581 333.801 310.346C332.845 311.111 332.272 312.449 332.176 313.118L332.081 313.596C332.081 313.691 332.081 313.978 332.081 313.691L331.985 312.831C331.221 304.038 329.978 295.15 328.736 286.261C327.398 277.373 325.868 268.485 324.339 259.692L340.778 256.633Z" fill="#FFA07F"/>
<path d="M333.227 237.805C339.822 239.813 347.659 262.368 347.659 262.368L322.141 280.623C322.141 280.623 312.87 261.795 315.642 253.288C318.605 244.4 325.773 235.512 333.227 237.805Z" fill="#F8F8F8"/>
<path d="M295.189 296.01L279.419 288.555L283.624 304.421C283.624 304.421 292.895 309.008 297.387 304.134L295.189 296.01Z" fill="#FFA07F"/>
<path d="M266.134 291.518L270.34 304.612L283.529 304.421L279.419 288.555L266.134 291.518Z" fill="#FFA07F"/>
<path d="M315.641 183.423C315.641 166.411 301.879 152.744 284.962 152.744C268.045 152.744 254.283 166.507 254.283 183.423V233.6L315.737 211.236L315.641 183.423Z" fill="#131313"/>
<path d="M302.452 200.627C300.541 210.184 298.725 227.77 305.415 234.174C305.415 234.174 302.835 243.922 284.962 243.922C265.369 243.922 275.596 234.174 275.596 234.174C286.3 231.593 286.013 223.66 284.102 216.301L302.452 200.627Z" fill="#FFA07F"/>
<path d="M294.997 207.03L284.197 216.301C284.675 218.021 284.962 219.837 285.153 221.558C289.263 220.984 294.806 216.492 295.284 212.191C295.475 210.089 295.379 207.986 294.997 207.03Z" fill="#FF7D6F"/>
<path d="M305.224 176.829C307.135 192.694 308.282 199.384 301.879 208.942C292.226 223.278 272.251 222.226 265.561 207.221C259.539 193.745 257.437 170.043 271.582 160.868C285.727 151.884 303.312 160.868 305.224 176.829Z" fill="#FFA07F"/>
<path d="M312.2 190.401C311.627 193.65 309.62 196.422 307.422 197.951C304.077 200.245 301.018 197.569 300.827 193.65C300.636 190.114 302.261 184.762 306.179 183.997C310.002 183.232 312.774 186.673 312.2 190.401Z" fill="#FFA07F"/>
<path fill-rule="evenodd" clip-rule="evenodd" d="M307.916 188.396C308.111 188.592 308.111 188.908 307.916 189.104L304.867 192.153L306.693 194.301C306.872 194.512 306.847 194.827 306.636 195.006C306.426 195.185 306.11 195.159 305.932 194.949L303.807 192.449C303.638 192.25 303.65 191.956 303.834 191.771L307.209 188.396C307.404 188.201 307.721 188.201 307.916 188.396Z" fill="#FC6A5A"/>
<path d="M272.633 204.545C272.633 204.545 285.918 213.72 289.454 198.715L272.633 204.545Z" fill="#D53F36"/>
<path d="M289.454 198.715C289.263 199.576 288.976 200.436 288.689 201.105C284.388 201.487 280.279 203.207 277.889 206.839C274.927 206.075 272.633 204.45 272.633 204.45L273.78 204.067L283.146 200.914L289.454 198.715Z" fill="#7C130E"/>
<path d="M283.146 200.914C280.852 204.545 275.882 205.31 273.78 204.068L283.146 200.914Z" fill="white"/>
<path d="M280.948 186.196C280.852 187.534 280.183 188.489 279.323 188.489C278.463 188.489 277.794 187.342 277.889 186.1C277.985 184.762 278.654 183.806 279.514 183.806C280.374 183.806 281.043 184.857 280.948 186.196Z" fill="#131313"/>
<path d="M266.517 188.776C266.421 190.114 265.752 191.069 264.892 191.069C264.032 191.069 263.363 189.922 263.458 188.68C263.554 187.342 264.223 186.386 265.083 186.386C265.848 186.386 266.517 187.533 266.517 188.776Z" fill="#131313"/>
<path d="M265.369 186.482L262.311 185.431C262.311 185.431 263.84 187.916 265.369 186.482Z" fill="#131313"/>
<path d="M279.897 183.806L276.838 182.754C276.838 182.754 278.272 185.239 279.897 183.806Z" fill="#131313"/>
<path d="M261.068 183.041C261.451 183.328 262.598 182.659 264.127 182.277C265.56 181.894 266.898 181.894 267.185 181.416C267.281 181.225 266.994 180.939 266.421 180.747C265.847 180.556 264.891 180.556 263.84 180.843C262.789 181.13 262.024 181.608 261.546 181.99C261.068 182.563 260.877 182.946 261.068 183.041Z" fill="#131313"/>
<path d="M281.999 181.034C281.617 181.321 280.183 180.938 278.463 180.747C276.743 180.556 275.213 180.747 274.927 180.365C274.831 180.174 275.118 179.887 275.787 179.6C276.456 179.314 277.507 179.218 278.75 179.314C279.896 179.409 280.948 179.792 281.521 180.174C281.999 180.556 282.19 180.843 281.999 181.034Z" fill="#131313"/>
<path d="M271.39 189.731C271.39 189.731 270.244 195.657 268.332 198.715C270.339 199.958 273.015 198.715 273.015 198.715L271.39 189.731Z" fill="#FC6A5A"/>
<path d="M266.421 164.595C266.325 164.882 290.028 190.209 306.849 188.107C310.385 182.85 308.76 166.316 302.357 162.78C296.049 159.243 286.587 154.369 280.279 155.42C273.875 156.663 266.421 164.595 266.421 164.595Z" fill="#131313"/>
<path d="M336.4 48.1C335.1 51.1 333.3 53.7 331.1 55.8C324.7 62 314.9 64.1 306.2 60.4C297.5 56.7 292.2 48.3 292.1 39.3C292.1 36.2 292.7 33.1 293.9 30.1C294.5 28.7 295.2 27.4 296 26.2C302 17.2 313.8 13.5 324.1 17.8C334.4 22.2 339.9 33.2 337.7 43.8C337.4 45.3 337 46.7 336.4 48.1Z" fill="#131313"/>
<path d="M337.3 46.6998C332.7 55.8998 322.7 60.5998 313.1 59.0998C312.2 58.9998 311.3 58.7998 310.5 58.4998C309.1 58.0998 307.7 57.5998 306.4 56.8998C303.5 55.3998 301 53.3998 299.1 51.0998C293.4 44.2998 291.9 34.3998 296.2 25.8998C300.5 17.3998 309.2 12.6998 318.1 13.1998C321.2 13.3998 324.2 14.1998 327.1 15.5998C328.5 16.2998 329.7 17.0998 330.8 17.9998C331.9 18.8998 333 19.8998 333.9 20.8998C340 27.8998 341.7 37.9998 337.3 46.6998Z" fill="white"/>
<path d="M337.3 46.7C332.7 55.9 322.7 60.6 313.1 59.1L332.8 20C333.2 20.3 333.6 20.6 334 21C340 27.9 341.7 38 337.3 46.7Z" fill="#D53F36"/>
<path d="M299 51.0998C293.3 44.2998 291.8 34.3998 296.1 25.8998C300.4 17.3998 309.1 12.6998 318 13.1998L299 51.0998Z" fill="#007AFF"/>
<path d="M71.1999 274.2C70.7999 277 69.7999 279.6 68.2999 281.8C64.0999 288.4 56.2999 292.2 48.0999 290.9C39.8999 289.6 33.6999 283.6 31.6999 276C30.9999 273.4 30.8999 270.7 31.2999 267.9C31.4999 266.6 31.7999 265.3 32.2999 264.1C35.4999 255.2 44.6999 249.5 54.3999 251.1C64.0999 252.6 71.0999 260.8 71.3999 270.3C71.4999 271.6 71.3999 272.9 71.1999 274.2Z" fill="#131313"/>
<path d="M58.6 289.1C57.6 289.7 56.6 290.2 55.6 290.6C54.5 291 53.4 291.4 52.4 291.6C51.8 291.7 51.1 291.8 50.5 291.9C48.1 292.2 45.8 292 43.5 291.5C38.9 290.4 34.7 287.7 31.8 283.7C31.1 282.8 30.5 281.8 30 280.8C29.8 280.3 29.6 279.9 29.4 279.4C29.2 278.8 29 278.2 28.8 277.7C28.5 276.7 28.3 275.7 28.1 274.8C27.4 269.6 28.7 264.4 31.6 260.3C32.9 258.4 34.6 256.8 36.6 255.4C36.9 255.2 37.2 255 37.5 254.8C38.4 254.2 39.5 253.7 40.5 253.3C41.6 252.9 42.7 252.5 43.7 252.3C51.8 250.5 60.3 254 64.8 260.9C65.2 261.5 65.6 262.1 65.9 262.8C66.2 263.3 66.4 263.9 66.7 264.5C67 265.2 67.3 266 67.5 266.8C67.7 267.6 67.9 268.5 68 269.3C69.1 277.1 65.4 284.9 58.6 289.1Z" fill="#007AFF"/>
<path d="M50.4 292C48 292.3 45.7 292.1 43.4 291.6L38.2 277.8L35.9 271.8L31.5 260.3C32.8 258.4 34.5 256.8 36.5 255.4L41.9 269.6L44.2 275.6L50.4 292Z" fill="#FDDA5F"/>
<path d="M67.5001 266.7L44.2001 275.5L38.2001 277.8L30.0001 280.9C29.8001 280.4 29.6001 280 29.4001 279.5C29.2001 278.9 29.0001 278.3 28.8001 277.8C28.5001 276.8 28.3001 275.8 28.1001 274.9L36.0001 271.9L42.0001 269.6L65.0001 260.9C65.4001 261.5 65.8001 262.1 66.1001 262.8C66.4001 263.3 66.6001 263.9 66.9001 264.5C67.0001 265.2 67.3001 265.9 67.5001 266.7Z" fill="#FDDA5F"/>
<path d="M272.9 341.4C273.7 343.1 274.1 345 274.1 346.8C274.2 352.1 271.2 357.2 266.1 359.5C261 361.8 255.2 360.8 251.3 357.2C250 356 248.8 354.5 248 352.7C247.6 351.9 247.3 351.1 247.1 350.2C245.6 344 248.6 337.4 254.7 334.6C260.7 331.8 267.7 333.9 271.5 339.1C272.1 339.9 272.5 340.6 272.9 341.4Z" fill="#00254C"/>
<path d="M269.7 337.3C270.5 339 270.9 340.9 270.9 342.7C271 348 268 353.1 262.9 355.4C257.8 357.7 252 356.7 248.1 353.1C246.8 351.9 245.6 350.4 244.8 348.6C244.4 347.8 244.1 347 243.9 346.1C242.4 339.9 245.4 333.3 251.5 330.5C257.5 327.7 264.5 329.8 268.3 335C268.9 335.7 269.3 336.5 269.7 337.3Z" fill="#D53F36"/>
<path d="M268.4 335L244 346.1C242.5 339.9 245.5 333.3 251.6 330.5C257.6 327.8 264.6 329.8 268.4 335Z" fill="#131313"/>
<path d="M270.9 342.7C271 348 268 353.1 262.9 355.4C257.8 357.7 252 356.7 248.1 353.1L270.9 342.7Z" fill="#FDDA5F"/>
<path d="M170.7 52.0001L173.8 45.3001C172.1 40.9001 171.6 35.9001 172.8 30.9001C175.6 19.6001 186.4 11.8001 198 13.0001C212.6 14.4001 222.4 28.4001 218.7 42.6001C215.8 54.0001 204.7 61.6001 193 60.2001C187 59.5001 181.9 56.7001 178.2 52.6001L170.7 52.0001Z" fill="#262626" stroke="#007AFF" stroke-width="1.5" stroke-miterlimit="10"/>
<path d="M190.4 36.8C190.4 38.3 189.1 39.6 187.6 39.6C186.1 39.6 184.8 38.3 184.8 36.8C184.8 35.3 186.1 34 187.6 34C189.1 34 190.4 35.2 190.4 36.8Z" fill="white"/>
<path d="M199.2 36.8C199.2 38.3 197.9 39.6 196.4 39.6C194.9 39.6 193.6 38.3 193.6 36.8C193.6 35.3 194.9 34 196.4 34C197.9 34 199.2 35.2 199.2 36.8Z" fill="white"/>
<path d="M208 36.8C208 38.3 206.7 39.6 205.2 39.6C203.7 39.6 202.4 38.3 202.4 36.8C202.4 35.3 203.7 34 205.2 34C206.7 34 208 35.2 208 36.8Z" fill="white"/>
<path d="M166.1 250.1C161.9 254.2 156 257.1 149.2 257.8C135.8 259.2 123.1 251.5 119.7 240C115.5 225.6 126.8 211.4 143.5 210C156.8 208.9 169.3 216.7 172.4 228.2C173.8 233.3 173.3 238.3 171.3 242.8L174.8 249.6L166.1 250.1Z" fill="#262626" stroke="#007AFF" stroke-width="1.5" stroke-miterlimit="10"/>
<path d="M155.5 231.4C157.3 231.4 158.7 232.7 158.7 234.2C158.7 235.8 157.3 237 155.5 237C153.7 237 152.3 235.7 152.3 234.2C152.3 232.6 153.7 231.4 155.5 231.4Z" fill="white"/>
<path d="M145.4 231.4C147.2 231.4 148.6 232.7 148.6 234.2C148.6 235.8 147.2 237 145.4 237C143.6 237 142.2 235.7 142.2 234.2C142.2 232.6 143.6 231.4 145.4 231.4Z" fill="white"/>
<path d="M135.3 231.4C137.1 231.4 138.5 232.7 138.5 234.2C138.5 235.8 137.1 237 135.3 237C133.5 237 132.1 235.7 132.1 234.2C132.1 232.6 133.5 231.4 135.3 231.4Z" fill="white"/>
<path d="M368.508 118.048C368.508 119.776 368.412 122.304 368.22 125.632C368.028 128.832 367.932 131.28 367.932 132.976C367.932 133.424 367.964 134.352 368.028 135.76C367.996 136.304 367.804 136.72 367.452 137.008C367.1 137.264 366.684 137.392 366.204 137.392C365.692 137.392 365.228 137.264 364.812 137.008C364.396 136.752 364.14 136.416 364.044 136C363.66 133.376 363.468 130.24 363.468 126.592L363.516 119.104C363.516 117.92 363.66 116.96 363.948 116.224C364.268 115.456 364.94 115.072 365.964 115.072C366.828 115.072 367.468 115.36 367.884 115.936C368.3 116.48 368.508 117.184 368.508 118.048ZM365.964 139.888C368.14 139.888 369.228 140.704 369.228 142.336C369.228 143.168 368.956 143.936 368.412 144.64C367.9 145.312 367.244 145.648 366.444 145.648C365.484 145.648 364.7 145.36 364.092 144.784C363.484 144.176 363.18 143.472 363.18 142.672C363.18 141.968 363.436 141.328 363.948 140.752C364.492 140.176 365.164 139.888 365.964 139.888Z" fill="#007AFF"/>
<path d="M359.925 130.48C360.181 130.928 360.389 131.584 360.549 132.448C360.709 133.28 360.789 134.032 360.789 134.704C360.789 135.568 360.693 136.528 360.501 137.584C360.309 138.64 360.133 139.456 359.973 140.032C357.765 144.064 354.501 146.08 350.181 146.08C348.581 146.08 346.949 145.552 345.285 144.496C343.621 143.44 342.469 142.224 341.829 140.848C340.965 138.128 340.533 136.384 340.533 135.616C340.533 134.336 340.805 132.976 341.349 131.536C341.925 130.096 342.645 128.848 343.509 127.792C344.085 127.056 345.077 126.432 346.485 125.92C347.893 125.376 349.173 125.104 350.325 125.104C352.565 125.104 354.453 125.536 355.989 126.4C357.557 127.232 358.869 128.592 359.925 130.48ZM355.749 138.208C355.909 137.888 355.989 136.816 355.989 134.992C355.989 134.064 355.813 133.152 355.461 132.256C355.141 131.36 354.661 130.592 354.021 129.952C353.957 129.888 353.781 129.792 353.493 129.664C353.205 129.504 352.805 129.36 352.293 129.232C351.813 129.072 351.253 128.992 350.613 128.992C348.821 128.992 347.509 129.712 346.677 131.152C345.845 132.592 345.429 134.224 345.429 136.048C345.429 136.336 345.525 136.928 345.717 137.824C345.909 138.72 346.053 139.296 346.149 139.552C346.405 140 346.917 140.528 347.685 141.136C348.485 141.712 349.349 142 350.277 142C351.717 142 352.853 141.664 353.685 140.992C354.549 140.288 355.237 139.36 355.749 138.208Z" fill="#007AFF"/>
<path d="M335.676 138.448C335.676 139.664 335.852 140.608 336.204 141.28C336.588 141.92 337.068 142.24 337.644 142.24C337.964 142.24 338.268 142.224 338.556 142.192C338.844 142.128 339.132 142.096 339.42 142.096C339.74 142.096 340.012 142.256 340.236 142.576C340.492 142.896 340.62 143.248 340.62 143.632C340.62 144.4 340.252 145.008 339.516 145.456C338.812 145.872 337.852 146.08 336.636 146.08C335.772 146.08 334.892 145.824 333.996 145.312C333.132 144.768 332.412 143.936 331.836 142.816C331.26 141.664 330.972 140.24 330.972 138.544C330.972 134.896 331.036 131.808 331.164 129.28C331.324 126.272 331.404 122.48 331.404 117.904C331.404 116.464 331.484 115.456 331.644 114.88C331.836 114.432 332.14 114.096 332.556 113.872C333.004 113.616 333.468 113.488 333.948 113.488C334.428 113.488 334.844 113.568 335.196 113.728C335.58 113.888 335.836 114.144 335.964 114.496C336.092 114.88 336.172 115.264 336.204 115.648C336.268 116 336.3 116.512 336.3 117.184C336.3 118.496 336.252 119.76 336.156 120.976C336.092 122.448 336.06 123.52 336.06 124.192C335.804 129.824 335.676 134.576 335.676 138.448Z" fill="#007AFF"/>
<path d="M324.962 138.448C324.962 139.664 325.138 140.608 325.49 141.28C325.874 141.92 326.354 142.24 326.93 142.24C327.25 142.24 327.554 142.224 327.842 142.192C328.13 142.128 328.418 142.096 328.706 142.096C329.026 142.096 329.298 142.256 329.522 142.576C329.778 142.896 329.906 143.248 329.906 143.632C329.906 144.4 329.538 145.008 328.802 145.456C328.098 145.872 327.138 146.08 325.922 146.08C325.058 146.08 324.178 145.824 323.282 145.312C322.418 144.768 321.698 143.936 321.122 142.816C320.546 141.664 320.258 140.24 320.258 138.544C320.258 134.896 320.322 131.808 320.45 129.28C320.61 126.272 320.69 122.48 320.69 117.904C320.69 116.464 320.77 115.456 320.93 114.88C321.122 114.432 321.426 114.096 321.842 113.872C322.29 113.616 322.754 113.488 323.234 113.488C323.714 113.488 324.13 113.568 324.482 113.728C324.866 113.888 325.122 114.144 325.25 114.496C325.378 114.88 325.458 115.264 325.49 115.648C325.554 116 325.586 116.512 325.586 117.184C325.586 118.496 325.538 119.76 325.442 120.976C325.378 122.448 325.346 123.52 325.346 124.192C325.09 129.824 324.962 134.576 324.962 138.448Z" fill="#007AFF"/>
<path d="M299.207 135.712C299.207 134.496 299.431 133.28 299.879 132.064C300.327 130.816 300.919 129.68 301.655 128.656C302.391 127.632 303.559 126.8 305.159 126.16C306.759 125.488 308.183 125.152 309.431 125.152C310.711 125.152 312.007 125.328 313.319 125.68C314.663 126.032 315.591 126.576 316.103 127.312C317.287 128.976 317.879 130.608 317.879 132.208C317.879 133.072 317.687 133.808 317.303 134.416C316.951 135.024 316.439 135.68 315.767 136.384C315.223 136.96 314.359 137.344 313.175 137.536C312.023 137.728 310.871 137.824 309.719 137.824C308.983 137.824 308.087 137.76 307.031 137.632C305.975 137.472 304.951 137.28 303.959 137.056C304.023 137.696 304.183 138.32 304.439 138.928C304.695 139.536 304.999 140 305.351 140.32C305.991 140.928 306.647 141.312 307.319 141.472C308.023 141.632 308.919 141.712 310.007 141.712C311.159 141.712 312.231 141.52 313.223 141.136C314.023 140.848 314.679 140.704 315.191 140.704C315.799 140.704 316.263 140.896 316.583 141.28C316.903 141.632 317.063 142.096 317.063 142.672C317.063 143.472 316.599 144.128 315.671 144.64C314.743 145.152 313.671 145.536 312.455 145.792C311.271 146.016 310.311 146.128 309.575 146.128C308.071 146.128 306.615 145.856 305.207 145.312C303.799 144.768 302.631 144 301.703 143.008C300.935 142.112 300.327 141.04 299.879 139.792C299.431 138.512 299.207 137.152 299.207 135.712ZM309.671 129.232C308.967 129.232 308.263 129.376 307.559 129.664C306.855 129.92 306.279 130.288 305.831 130.768C305.255 131.376 304.855 131.872 304.631 132.256C304.439 132.608 304.311 133.104 304.247 133.744C305.047 134 306.711 134.128 309.239 134.128C310.615 134.128 311.671 133.92 312.407 133.504C313.175 133.088 313.559 132.544 313.559 131.872C313.559 131.2 313.143 130.592 312.311 130.048C311.479 129.504 310.599 129.232 309.671 129.232Z" fill="#007AFF"/>
<path d="M291.316 128.704C291.284 128.192 291.268 127.424 291.268 126.4V124.576C291.268 123.36 291.236 122.448 291.172 121.84C291.108 121.328 291.076 120 291.076 117.856C291.076 117.088 291.3 116.496 291.748 116.08C292.228 115.632 292.868 115.408 293.668 115.408C294.692 115.408 295.38 115.632 295.732 116.08C296.084 116.528 296.26 117.264 296.26 118.288V120.112L296.212 125.392C296.18 126.416 296.164 127.952 296.164 130L296.212 133.936C296.244 134.544 296.26 135.392 296.26 136.48C296.26 137.344 296.292 138.576 296.356 140.176C296.42 141.648 296.452 142.752 296.452 143.488C296.452 144.096 296.276 144.656 295.924 145.168C295.604 145.68 295.156 145.936 294.58 145.936C292.34 145.936 291.22 145.184 291.22 143.68C291.22 142.848 291.252 141.92 291.316 140.896C291.38 140.16 291.412 139.04 291.412 137.536C291.412 136.48 291.38 134.96 291.316 132.976C289.812 133.104 287.22 133.168 283.54 133.168C281.236 133.168 279.444 133.168 278.164 133.168C276.884 133.136 275.956 133.056 275.38 132.928L275.332 138.448C275.332 138.8 275.412 139.744 275.572 141.28C275.732 142.304 275.812 143.2 275.812 143.968C275.812 144.448 275.524 144.912 274.948 145.36C274.404 145.776 273.892 145.984 273.412 145.984C272.26 145.984 271.476 145.712 271.06 145.168C270.644 144.592 270.436 143.728 270.436 142.576L270.388 138.784C270.356 138.336 270.34 137.712 270.34 136.912C270.34 135.728 270.308 134.112 270.244 132.064C270.18 130.208 270.148 128.864 270.148 128.032C270.148 126.784 270.18 125.04 270.244 122.8C270.308 120.688 270.34 119.12 270.34 118.096C270.34 117.072 270.596 116.384 271.108 116.032C271.62 115.68 272.196 115.504 272.836 115.504C274.628 115.504 275.524 116.096 275.524 117.28C275.524 119.392 275.476 121.408 275.38 123.328C275.316 125.76 275.284 127.536 275.284 128.656C276.212 128.88 277.188 129.024 278.212 129.088C279.236 129.152 280.676 129.184 282.532 129.184C286.308 129.184 289.236 129.024 291.316 128.704Z" fill="#007AFF"/>
<path d="M66.7743 17.9089C66.7743 18.7729 66.7263 20.0369 66.6303 21.7009C66.5343 23.3009 66.4864 24.5249 66.4864 25.3729C66.4864 25.5969 66.5024 26.0609 66.5344 26.7649C66.5184 27.0369 66.4223 27.2449 66.2463 27.3889C66.0703 27.5169 65.8623 27.5809 65.6223 27.5809C65.3663 27.5809 65.1343 27.5169 64.9263 27.3889C64.7183 27.2609 64.5904 27.0929 64.5424 26.8849C64.3504 25.5729 64.2543 24.0049 64.2543 22.1809L64.2784 18.4369C64.2784 17.8449 64.3504 17.3649 64.4944 16.9969C64.6544 16.6129 64.9903 16.4209 65.5023 16.4209C65.9344 16.4209 66.2543 16.5649 66.4623 16.8529C66.6703 17.1249 66.7743 17.4769 66.7743 17.9089ZM65.5023 28.8289C66.5903 28.8289 67.1343 29.2369 67.1343 30.0529C67.1343 30.4689 66.9983 30.8529 66.7263 31.2049C66.4703 31.5409 66.1424 31.7089 65.7424 31.7089C65.2624 31.7089 64.8703 31.5649 64.5663 31.2769C64.2623 30.9729 64.1104 30.6209 64.1104 30.2209C64.1104 29.8689 64.2384 29.5489 64.4944 29.2609C64.7664 28.9729 65.1023 28.8289 65.5023 28.8289Z" fill="#007AFF"/>
<path d="M62.5218 31.9251C61.9778 31.9251 61.5618 31.8451 61.2738 31.6851C60.9858 31.5091 60.6738 31.1891 60.3378 30.7251C59.9218 31.0931 59.2978 31.3891 58.4658 31.6131C57.6498 31.8371 56.9458 31.9491 56.3538 31.9491C55.3778 31.9491 54.5858 31.6851 53.9778 31.1571C53.3858 30.6131 53.0898 29.8211 53.0898 28.7811C53.0898 28.3331 53.2098 27.9251 53.4498 27.5571C53.7058 27.1731 54.0338 26.8371 54.4338 26.5491C54.8818 26.2451 55.4098 26.0051 56.0178 25.8291C56.6418 25.6531 57.2098 25.5651 57.7218 25.5651C58.5858 25.5651 59.3538 25.6451 60.0258 25.8051V25.7811C60.0258 24.9171 59.8098 24.3251 59.3778 24.0051C58.9618 23.6691 58.2898 23.5011 57.3618 23.5011C56.7698 23.5011 56.2578 23.7651 55.8258 24.2931C55.6658 24.5011 55.3298 24.6051 54.8178 24.6051C54.5618 24.6051 54.3698 24.5011 54.2418 24.2931C54.1298 24.0691 54.0738 23.8451 54.0738 23.6211C54.0738 23.1571 54.2658 22.7571 54.6498 22.4211C55.0498 22.0851 55.5298 21.8371 56.0898 21.6771C56.6498 21.5011 57.1698 21.4131 57.6498 21.4131C58.1138 21.4131 58.6658 21.5091 59.3058 21.7011C59.9458 21.8931 60.4658 22.1491 60.8658 22.4691C61.3458 22.8851 61.7138 23.3731 61.9698 23.9331C62.2418 24.4771 62.3778 25.0771 62.3778 25.7331C62.3778 25.9411 62.3618 26.2531 62.3298 26.6691C62.2978 27.1491 62.2818 27.5411 62.2818 27.8451C62.2818 27.9891 62.2658 28.1731 62.2338 28.3971C62.2018 28.6851 62.1858 28.9251 62.1858 29.1171C62.1858 29.3251 62.2498 29.5251 62.3778 29.7171C62.5058 29.9091 62.6818 30.0691 62.9058 30.1971C63.1138 30.3091 63.2498 30.4291 63.3138 30.5571C63.3778 30.6851 63.4098 30.8291 63.4098 30.9891C63.4098 31.1491 63.3058 31.3491 63.0978 31.5891C62.9058 31.8131 62.7138 31.9251 62.5218 31.9251ZM57.7218 27.3411C57.0978 27.3411 56.5458 27.4611 56.0658 27.7011C55.5858 27.9411 55.3458 28.3651 55.3458 28.9731C55.3458 29.2771 55.4498 29.5331 55.6578 29.7411C55.8818 29.9491 56.1218 30.0531 56.3778 30.0531C57.0658 30.0531 57.6418 29.9811 58.1058 29.8371C58.5698 29.6931 59.1298 29.4291 59.7858 29.0451C59.8658 28.7891 59.9138 28.4291 59.9298 27.9651C59.9298 27.7891 59.9378 27.6531 59.9538 27.5571C59.0898 27.4131 58.3458 27.3411 57.7218 27.3411Z" fill="#007AFF"/>
<path d="M50.7329 28.1089C50.7329 28.7169 50.8209 29.1889 50.9969 29.5249C51.1889 29.8449 51.4289 30.0049 51.7169 30.0049C51.8769 30.0049 52.0289 29.9969 52.1729 29.9809C52.3169 29.9489 52.4609 29.9329 52.6049 29.9329C52.7649 29.9329 52.9009 30.0129 53.0129 30.1729C53.1409 30.3329 53.2049 30.5089 53.2049 30.7009C53.2049 31.0849 53.0209 31.3889 52.6529 31.6129C52.3009 31.8209 51.8209 31.9249 51.2129 31.9249C50.7809 31.9249 50.3409 31.7969 49.8929 31.5409C49.4609 31.2689 49.1009 30.8529 48.8129 30.2929C48.5249 29.7169 48.3809 29.0049 48.3809 28.1569C48.3809 26.3329 48.4129 24.7889 48.4769 23.5249C48.5569 22.0209 48.5969 20.1249 48.5969 17.8369C48.5969 17.1169 48.6369 16.6129 48.7169 16.3249C48.8129 16.1009 48.9649 15.9329 49.1729 15.8209C49.3969 15.6929 49.6289 15.6289 49.8689 15.6289C50.1089 15.6289 50.3169 15.6689 50.4929 15.7489C50.6849 15.8289 50.8129 15.9569 50.8769 16.1329C50.9409 16.3249 50.9809 16.5169 50.9969 16.7089C51.0289 16.8849 51.0449 17.1409 51.0449 17.4769C51.0449 18.1329 51.0209 18.7649 50.9729 19.3729C50.9409 20.1089 50.9249 20.6449 50.9249 20.9809C50.7969 23.7969 50.7329 26.1729 50.7329 28.1089Z" fill="#007AFF"/>
<path d="M46.7077 24.125C46.8357 24.349 46.9397 24.677 47.0197 25.109C47.0997 25.525 47.1397 25.901 47.1397 26.237C47.1397 26.861 47.0037 27.749 46.7317 28.901C45.6277 30.917 43.9957 31.925 41.8357 31.925C41.0357 31.925 40.2197 31.661 39.3877 31.133C38.5557 30.605 37.9797 29.997 37.6597 29.309C37.2277 27.933 37.0117 27.061 37.0117 26.693C37.0117 26.053 37.1477 25.373 37.4197 24.653C37.7077 23.933 38.0677 23.309 38.4997 22.781C38.7717 22.413 39.2597 22.101 39.9637 21.845C40.6677 21.573 41.3077 21.437 41.8837 21.437C43.0037 21.437 43.9557 21.653 44.7397 22.085C45.5237 22.501 46.1797 23.181 46.7077 24.125ZM44.6197 27.989C44.6997 27.781 44.7397 27.245 44.7397 26.381C44.7397 25.917 44.6517 25.461 44.4757 25.013C44.3157 24.565 44.0757 24.181 43.7557 23.861C43.7237 23.829 43.6357 23.781 43.4917 23.717C43.3477 23.637 43.1477 23.565 42.8917 23.501C42.6517 23.421 42.3717 23.381 42.0517 23.381C41.1557 23.381 40.4997 23.741 40.0837 24.461C39.6677 25.181 39.4597 25.997 39.4597 26.909C39.4597 27.069 39.4997 27.373 39.5797 27.821C39.6757 28.269 39.7557 28.549 39.8197 28.661C39.8677 28.773 39.9877 28.933 40.1797 29.141C40.3877 29.333 40.6357 29.509 40.9237 29.669C41.2277 29.813 41.5397 29.885 41.8597 29.885C42.5797 29.885 43.1557 29.717 43.5877 29.381C44.0197 29.029 44.3637 28.565 44.6197 27.989Z" fill="#007AFF"/>
<path d="M33.0664 23.2369C33.0504 22.9809 33.0424 22.5969 33.0424 22.0849V21.1729C33.0424 20.5649 33.0264 20.1089 32.9944 19.8049C32.9624 19.5489 32.9464 18.8849 32.9464 17.8129C32.9464 17.4289 33.0584 17.1329 33.2824 16.9249C33.5224 16.7009 33.8424 16.5889 34.2424 16.5889C34.7544 16.5889 35.0984 16.7009 35.2744 16.9249C35.4504 17.1489 35.5384 17.5169 35.5384 18.0289V18.9409L35.5144 21.5809C35.4984 22.0929 35.4904 22.8609 35.4904 23.8849L35.5144 25.8529C35.5304 26.1569 35.5384 26.5809 35.5384 27.1249C35.5384 27.5569 35.5544 28.1729 35.5864 28.9729C35.6184 29.7089 35.6344 30.2609 35.6344 30.6289C35.6344 30.9329 35.5464 31.2129 35.3704 31.4689C35.2104 31.7249 34.9864 31.8529 34.6984 31.8529C33.5784 31.8529 33.0184 31.4769 33.0184 30.7249C33.0184 30.3089 33.0344 29.8449 33.0664 29.3329C33.0984 28.9649 33.1144 28.4049 33.1144 27.6529C33.1144 27.1249 33.0984 26.3649 33.0664 25.3729C32.3144 25.4369 31.0184 25.4689 29.1784 25.4689C28.0264 25.4689 27.1304 25.4689 26.4904 25.4689C25.8504 25.4529 25.3864 25.4129 25.0984 25.3489L25.0744 28.1089C25.0744 28.2849 25.1144 28.7569 25.1944 29.5249C25.2744 30.0369 25.3144 30.4849 25.3144 30.8689C25.3144 31.1089 25.1704 31.3409 24.8824 31.5649C24.6104 31.7729 24.3544 31.8769 24.1144 31.8769C23.5384 31.8769 23.1464 31.7409 22.9384 31.4689C22.7304 31.1809 22.6264 30.7489 22.6264 30.1729L22.6024 28.2769C22.5864 28.0529 22.5784 27.7409 22.5784 27.3409C22.5784 26.7489 22.5624 25.9409 22.5304 24.9169C22.4984 23.9889 22.4824 23.3169 22.4824 22.9009C22.4824 22.2769 22.4984 21.4049 22.5304 20.2849C22.5624 19.2289 22.5784 18.4449 22.5784 17.9329C22.5784 17.4209 22.7064 17.0769 22.9624 16.9009C23.2184 16.7249 23.5064 16.6369 23.8264 16.6369C24.7224 16.6369 25.1704 16.9329 25.1704 17.5249C25.1704 18.5809 25.1464 19.5889 25.0984 20.5489C25.0664 21.7649 25.0504 22.6529 25.0504 23.2129C25.5144 23.3249 26.0024 23.3969 26.5144 23.4289C27.0264 23.4609 27.7464 23.4769 28.6744 23.4769C30.5624 23.4769 32.0264 23.3969 33.0664 23.2369Z" fill="#007AFF"/>
</svg>
