<svg width="393" height="464" viewBox="0 0 393 464" fill="none" xmlns="http://www.w3.org/2000/svg">
<path d="M391.6 254.25C391.6 297.55 378.5 337.75 356 371.15C343 390.45 326.8 407.45 308.3 421.45C306.7 422.65 305.1 423.85 303.5 424.95C296.5 429.95 289.2 434.55 281.6 438.65C266.2 446.95 249.7 453.45 232.2 457.65C231.2 457.95 230.1 458.15 229.1 458.35C225.6 459.15 222.1 459.85 218.5 460.45C206.7 462.55 194.5 463.65 182.1 463.65C174.3 463.65 166.6 463.25 159 462.35C155.6 461.95 152.2 461.55 148.9 460.95C48.9 445.15 -27.4 358.65 -27.4 254.25C-27.4 138.55 66.4 44.75 182.1 44.75C297.8 44.75 391.6 138.55 391.6 254.25Z" fill="#00254C"/>
<path fill-rule="evenodd" clip-rule="evenodd" d="M351.227 265.764C349.194 264.994 346.698 264.756 343.605 265.192C343.195 265.25 342.816 264.964 342.758 264.554C342.7 264.144 342.986 263.765 343.396 263.707C346.671 263.245 349.433 263.48 351.758 264.362C352.146 264.508 352.341 264.941 352.194 265.329C352.047 265.716 351.614 265.911 351.227 265.764ZM336.379 266.276C336.522 266.665 336.323 267.096 335.935 267.239C333.674 268.072 331.207 269.147 328.513 270.481C328.142 270.665 327.692 270.513 327.508 270.142C327.324 269.771 327.476 269.321 327.847 269.137C330.58 267.783 333.097 266.687 335.416 265.832C335.805 265.689 336.236 265.888 336.379 266.276ZM357.104 269.645C357.458 269.43 357.919 269.543 358.134 269.898C359.444 272.06 360.401 274.687 361.125 277.659C361.223 278.062 360.976 278.468 360.574 278.566C360.171 278.664 359.765 278.417 359.667 278.014C358.965 275.129 358.055 272.661 356.851 270.675C356.637 270.321 356.75 269.86 357.104 269.645ZM321.73 273.255C321.936 273.614 321.813 274.073 321.454 274.28C320.3 274.945 319.112 275.648 317.889 276.391C316.759 277.078 315.644 277.772 314.544 278.472C314.194 278.695 313.731 278.592 313.508 278.242C313.286 277.893 313.389 277.429 313.738 277.207C314.847 276.501 315.971 275.801 317.111 275.109C318.342 274.36 319.54 273.651 320.705 272.98C321.064 272.773 321.523 272.897 321.73 273.255ZM308.21 281.773C308.447 282.113 308.364 282.58 308.024 282.817C305.857 284.327 303.748 285.865 301.692 287.427C301.362 287.678 300.891 287.614 300.641 287.284C300.39 286.954 300.454 286.484 300.784 286.233C302.856 284.658 304.982 283.109 307.166 281.586C307.506 281.35 307.974 281.433 308.21 281.773ZM361.686 285.123C362.097 285.074 362.471 285.368 362.52 285.779C362.826 288.347 363.06 291.073 363.261 293.918C363.29 294.331 362.979 294.689 362.565 294.719C362.152 294.748 361.794 294.437 361.764 294.023C361.564 291.191 361.333 288.491 361.03 285.957C360.981 285.546 361.275 285.172 361.686 285.123ZM-37.1962 291.561C-37.1891 291.147 -36.8477 290.817 -36.4336 290.824C-33.6908 290.87 -30.9662 290.99 -28.2701 291.189C-27.857 291.22 -27.547 291.58 -27.5776 291.993C-27.6081 292.406 -27.9678 292.716 -28.3809 292.685C-31.0467 292.488 -33.7429 292.37 -36.459 292.324C-36.8731 292.317 -37.2032 291.975 -37.1962 291.561ZM-43.8316 291.618C-43.818 292.032 -44.1426 292.379 -44.5566 292.392C-47.2482 292.481 -49.9488 292.632 -52.6484 292.84C-53.0614 292.871 -53.422 292.562 -53.4537 292.149C-53.4855 291.736 -53.1764 291.376 -52.7635 291.344C-50.0431 291.135 -47.3206 290.982 -44.6058 290.893C-44.1918 290.88 -43.8452 291.204 -43.8316 291.618ZM295.652 291.237C295.916 291.556 295.87 292.029 295.551 292.292C293.515 293.972 291.532 295.677 289.595 297.404C289.286 297.679 288.812 297.652 288.536 297.343C288.26 297.034 288.288 296.56 288.597 296.284C290.547 294.545 292.545 292.828 294.596 291.135C294.916 290.872 295.388 290.917 295.652 291.237ZM-20.9756 292.695C-20.9177 292.285 -20.5383 291.999 -20.1282 292.057C-17.393 292.443 -14.6999 292.923 -12.061 293.507C-11.6566 293.597 -11.4012 293.997 -11.4907 294.401C-11.5802 294.806 -11.9806 295.061 -12.385 294.972C-14.9834 294.397 -17.6381 293.923 -20.3377 293.542C-20.7478 293.484 -21.0334 293.105 -20.9756 292.695ZM-60.0578 292.791C-60.0098 293.202 -60.3044 293.575 -60.7158 293.623C-63.4097 293.937 -66.0927 294.301 -68.7548 294.709C-69.1642 294.771 -69.547 294.49 -69.6097 294.081C-69.6724 293.671 -69.3913 293.289 -68.9818 293.226C-66.3029 292.816 -63.6021 292.449 -60.8896 292.133C-60.4782 292.085 -60.1057 292.379 -60.0578 292.791ZM-76.1553 295.196C-76.079 295.603 -76.3473 295.995 -76.7544 296.071C-79.4401 296.574 -82.0929 297.116 -84.702 297.689C-85.1065 297.778 -85.5065 297.522 -85.5954 297.117C-85.6843 296.713 -85.4284 296.313 -85.0238 296.224C-82.4001 295.647 -79.732 295.103 -77.0305 294.597C-76.6233 294.521 -76.2315 294.789 -76.1553 295.196ZM-5.08917 296.117C-4.96315 295.723 -4.54112 295.505 -4.14654 295.631C-1.50932 296.473 1.0554 297.438 3.53357 298.536C3.91231 298.704 4.08337 299.147 3.91566 299.525C3.74794 299.904 3.30495 300.075 2.92621 299.907C0.500641 298.833 -2.01344 297.887 -4.60291 297.06C-4.99748 296.934 -5.21519 296.512 -5.08917 296.117ZM-92.0435 298.636C-91.9425 299.038 -92.1863 299.446 -92.588 299.547C-95.2751 300.222 -97.899 300.925 -100.447 301.647C-100.845 301.76 -101.26 301.529 -101.373 301.13C-101.486 300.732 -101.254 300.317 -100.856 300.204C-98.2939 299.478 -95.6555 298.771 -92.9537 298.092C-92.552 297.991 -92.1445 298.235 -92.0435 298.636ZM362.971 301.33C363.384 301.306 363.739 301.622 363.763 302.036L363.774 302.238C363.923 304.817 364.075 307.457 364.255 310.141C364.282 310.554 363.97 310.912 363.556 310.94C363.143 310.967 362.786 310.655 362.758 310.241C362.577 307.547 362.425 304.898 362.276 302.318L362.265 302.122C362.241 301.709 362.557 301.354 362.971 301.33ZM283.858 301.669C284.144 301.968 284.134 302.443 283.835 302.729C281.935 304.549 280.079 306.389 278.26 308.248C277.971 308.544 277.496 308.549 277.2 308.259C276.904 307.97 276.898 307.495 277.188 307.199C279.017 305.329 280.885 303.478 282.797 301.646C283.096 301.36 283.571 301.37 283.858 301.669ZM9.80643 302.575C10.0202 302.22 10.4811 302.106 10.8359 302.32C13.1945 303.741 15.4455 305.313 17.5735 307.046C17.8946 307.308 17.9429 307.78 17.6813 308.101C17.4197 308.422 16.9473 308.471 16.6261 308.209C14.5556 306.522 12.3628 304.991 10.0619 303.605C9.70705 303.391 9.5927 302.93 9.80643 302.575ZM-107.72 303.033C-107.595 303.428 -107.814 303.849 -108.208 303.975C-110.9 304.827 -113.475 305.692 -115.914 306.555C-116.304 306.693 -116.733 306.489 -116.871 306.098C-117.009 305.708 -116.805 305.279 -116.414 305.141C-113.959 304.272 -111.369 303.402 -108.661 302.545C-108.266 302.419 -107.845 302.638 -107.72 303.033ZM-123.055 308.421C-122.901 308.805 -123.088 309.242 -123.473 309.395C-124.779 309.917 -126.024 310.433 -127.204 310.939C-127.585 311.103 -128.026 310.927 -128.189 310.546C-128.353 310.165 -128.176 309.724 -127.796 309.561C-126.603 309.049 -125.346 308.529 -124.029 308.002C-123.645 307.849 -123.208 308.036 -123.055 308.421ZM22.4857 312.658C22.7929 312.38 23.2672 312.404 23.545 312.711C25.3615 314.72 27.0457 316.891 28.5835 319.232C28.8109 319.578 28.7146 320.043 28.3684 320.271C28.0222 320.498 27.5572 320.402 27.3298 320.055C25.8345 317.779 24.1975 315.67 22.4323 313.717C22.1545 313.41 22.1784 312.936 22.4857 312.658ZM272.815 312.875C273.119 313.156 273.138 313.63 272.857 313.935C271.073 315.865 269.322 317.811 267.599 319.77C267.325 320.081 266.851 320.111 266.54 319.838C266.229 319.564 266.199 319.09 266.472 318.779C268.203 316.812 269.962 314.857 271.755 312.917C272.036 312.612 272.51 312.594 272.815 312.875ZM364.078 317.553C364.491 317.514 364.857 317.817 364.896 318.23C365.147 320.901 365.448 323.591 365.82 326.28C365.876 326.69 365.59 327.069 365.179 327.125C364.769 327.182 364.39 326.895 364.334 326.485C363.958 323.77 363.656 321.059 363.402 318.37C363.363 317.958 363.666 317.592 364.078 317.553ZM262.381 324.664C262.697 324.932 262.737 325.405 262.469 325.721C260.774 327.725 259.101 329.739 257.441 331.761C257.178 332.081 256.706 332.127 256.386 331.865C256.066 331.602 256.019 331.129 256.282 330.809C257.945 328.783 259.624 326.763 261.324 324.753C261.591 324.436 262.065 324.397 262.381 324.664ZM31.5928 326.076C31.9684 325.901 32.4145 326.064 32.5891 326.44C33.7066 328.843 34.6946 331.389 35.5436 334.085C35.668 334.48 35.4486 334.901 35.0535 335.026C34.6585 335.15 34.2373 334.931 34.1129 334.536C33.2828 331.9 32.3181 329.414 31.229 327.072C31.0543 326.697 31.2172 326.251 31.5928 326.076ZM366.272 333.666C366.679 333.584 367.074 333.848 367.155 334.254C367.684 336.898 368.304 339.52 369.036 342.103C369.149 342.502 368.918 342.916 368.519 343.029C368.121 343.142 367.706 342.911 367.593 342.512C366.849 339.887 366.22 337.226 365.684 334.548C365.603 334.142 365.866 333.747 366.272 333.666ZM252.37 336.809C252.693 337.069 252.744 337.541 252.484 337.864C250.838 339.908 249.2 341.956 247.564 344.005C247.306 344.328 246.834 344.381 246.51 344.123C246.187 343.864 246.134 343.392 246.392 343.069C248.029 341.019 249.668 338.97 251.315 336.923C251.575 336.601 252.047 336.55 252.37 336.809ZM36.6709 341.441C37.0775 341.362 37.4713 341.628 37.5505 342.034C37.8113 343.373 38.0423 344.742 38.2425 346.144C38.4284 347.445 38.6257 348.733 38.8344 350.006C38.9013 350.415 38.6242 350.801 38.2154 350.868C37.8067 350.935 37.421 350.658 37.3541 350.249C37.1438 348.965 36.9449 347.668 36.7576 346.356C36.5608 344.979 36.334 343.634 36.0782 342.321C35.999 341.915 36.2643 341.521 36.6709 341.441ZM242.534 349.1C242.858 349.359 242.91 349.831 242.651 350.155C241.011 352.202 239.366 354.248 237.71 356.288C237.449 356.61 236.976 356.659 236.655 356.398C236.333 356.137 236.284 355.664 236.545 355.343C238.199 353.306 239.841 351.263 241.48 349.217C241.739 348.894 242.211 348.841 242.534 349.1ZM370.628 349.314C371.013 349.162 371.449 349.352 371.6 349.737C372.091 350.982 372.616 352.212 373.176 353.425C373.73 354.533 374.31 355.615 374.913 356.666C375.119 357.026 374.995 357.484 374.636 357.69C374.277 357.896 373.818 357.772 373.612 357.413C372.992 356.332 372.398 355.222 371.829 354.085L371.824 354.075L371.819 354.065C371.244 352.821 370.707 351.561 370.205 350.287C370.053 349.902 370.242 349.466 370.628 349.314ZM459.045 349.735C459.33 350.035 459.316 350.51 459.015 350.795C458.087 351.673 457.165 352.529 456.25 353.361C455.943 353.64 455.469 353.618 455.19 353.312C454.911 353.005 454.934 352.531 455.24 352.252C456.148 351.426 457.063 350.577 457.985 349.705C458.286 349.42 458.76 349.434 459.045 349.735ZM450.721 357.211C450.987 357.529 450.944 358.002 450.626 358.267C448.626 359.934 446.662 361.489 444.733 362.935C444.401 363.183 443.931 363.116 443.683 362.784C443.434 362.453 443.502 361.983 443.833 361.734C445.741 360.305 447.685 358.767 449.665 357.115C449.983 356.85 450.456 356.893 450.721 357.211ZM39.3621 357.04C39.7675 356.955 40.1649 357.215 40.2496 357.62C40.7875 360.196 41.3746 362.708 42.0096 365.156C42.1136 365.557 41.8729 365.966 41.472 366.07C41.071 366.174 40.6617 365.934 40.5577 365.533C39.9165 363.061 39.3239 360.525 38.7812 357.927C38.6966 357.522 38.9566 357.124 39.3621 357.04ZM232.613 361.321C232.931 361.586 232.974 362.058 232.709 362.377C231.032 364.392 229.337 366.399 227.617 368.394C227.347 368.708 226.874 368.743 226.56 368.473C226.246 368.202 226.211 367.729 226.481 367.415C228.194 365.427 229.884 363.427 231.556 361.417C231.821 361.099 232.294 361.056 232.613 361.321ZM377.923 362.65C378.252 362.397 378.722 362.459 378.975 362.787C380.499 364.769 382.138 366.585 383.892 368.212C384.195 368.493 384.213 368.968 383.932 369.271C383.65 369.575 383.176 369.593 382.872 369.311C381.051 367.624 379.357 365.744 377.786 363.702C377.534 363.373 377.595 362.902 377.923 362.65ZM438.823 366.202C439.05 366.548 438.953 367.013 438.606 367.24C436.418 368.674 434.277 369.963 432.184 371.112C431.821 371.311 431.365 371.178 431.166 370.815C430.966 370.452 431.099 369.996 431.462 369.797C433.519 368.668 435.626 367.4 437.784 365.986C438.131 365.759 438.596 365.855 438.823 366.202ZM43.2032 372.096C43.598 371.971 44.0196 372.19 44.1447 372.584C44.9385 375.09 45.7867 377.519 46.6877 379.872C46.8359 380.259 46.6424 380.693 46.2555 380.841C45.8687 380.989 45.4351 380.795 45.2869 380.409C44.3751 378.027 43.5171 375.57 42.7147 373.037C42.5896 372.643 42.8083 372.221 43.2032 372.096ZM388.671 372.87C388.886 372.516 389.347 372.402 389.701 372.617C391.775 373.871 393.976 374.892 396.306 375.649C396.699 375.778 396.915 376.201 396.787 376.595C396.659 376.989 396.235 377.204 395.841 377.076C393.399 376.281 391.093 375.212 388.925 373.9C388.571 373.686 388.457 373.225 388.671 372.87ZM425.815 373.434C425.977 373.815 425.8 374.255 425.419 374.418C422.979 375.459 420.61 376.3 418.311 376.953C417.913 377.066 417.498 376.835 417.385 376.436C417.272 376.038 417.503 375.623 417.902 375.51C420.135 374.875 422.445 374.056 424.83 373.038C425.211 372.876 425.652 373.053 425.815 373.434ZM222.349 373.254C222.657 373.532 222.681 374.006 222.404 374.314C220.649 376.26 218.864 378.192 217.043 380.106C216.758 380.406 216.283 380.418 215.983 380.133C215.683 379.847 215.671 379.373 215.956 379.072C217.768 377.169 219.543 375.247 221.29 373.309C221.567 373.002 222.041 372.977 222.349 373.254ZM411.543 377.618C411.59 378.03 411.295 378.401 410.883 378.449C408.249 378.752 405.721 378.788 403.299 378.579C402.886 378.544 402.58 378.18 402.616 377.768C402.651 377.355 403.015 377.049 403.427 377.085C405.745 377.285 408.172 377.25 410.712 376.959C411.123 376.911 411.495 377.207 411.543 377.618ZM211.526 384.678C211.817 384.973 211.814 385.448 211.519 385.739C209.659 387.577 207.757 389.395 205.809 391.19C205.504 391.471 205.03 391.451 204.749 391.147C204.468 390.842 204.488 390.368 204.792 390.087C206.727 388.304 208.616 386.498 210.465 384.672C210.76 384.381 211.235 384.384 211.526 384.678ZM48.6956 386.646C49.0718 386.473 49.5172 386.637 49.6905 387.014C50.7917 389.405 51.9534 391.704 53.1734 393.911C53.3738 394.273 53.2424 394.729 52.8799 394.93C52.5174 395.13 52.0611 394.999 51.8607 394.636C50.6223 392.396 49.444 390.064 48.3281 387.641C48.1548 387.265 48.3193 386.819 48.6956 386.646ZM199.983 395.377C200.252 395.692 200.215 396.166 199.9 396.435C197.913 398.132 195.877 399.804 193.786 401.45C193.461 401.706 192.989 401.65 192.733 401.324C192.477 400.999 192.533 400.527 192.858 400.271C194.933 398.638 196.954 396.978 198.926 395.294C199.241 395.025 199.714 395.062 199.983 395.377ZM56.1268 400.286C56.4717 400.056 56.9372 400.15 57.1666 400.495C58.6204 402.681 60.1402 404.758 61.7231 406.724C61.9829 407.046 61.932 407.518 61.6094 407.778C61.2868 408.038 60.8146 407.987 60.5548 407.664C58.9424 405.662 57.3957 403.548 55.9175 401.325C55.6882 400.98 55.7818 400.515 56.1268 400.286ZM187.653 405.156C187.895 405.491 187.819 405.96 187.484 406.203C185.374 407.725 183.21 409.221 180.986 410.687C180.64 410.915 180.175 410.82 179.947 410.474C179.719 410.128 179.814 409.663 180.16 409.435C182.366 407.98 184.513 406.497 186.606 404.986C186.941 404.744 187.41 404.82 187.653 405.156ZM65.7798 412.465C66.0748 412.174 66.5496 412.178 66.8404 412.473C68.6684 414.327 70.5654 416.054 72.5279 417.653C72.849 417.915 72.8973 418.387 72.6357 418.709C72.374 419.03 71.9016 419.078 71.5805 418.816C69.5747 417.182 67.6375 415.418 65.7721 413.526C65.4814 413.231 65.4848 412.756 65.7798 412.465ZM174.558 413.864C174.771 414.219 174.656 414.68 174.301 414.893C173.173 415.57 172.03 416.239 170.872 416.901C169.722 417.558 168.575 418.196 167.431 418.815C167.067 419.012 166.612 418.876 166.415 418.512C166.217 418.148 166.353 417.693 166.717 417.495C167.851 416.883 168.988 416.25 170.128 415.599C171.277 414.942 172.41 414.278 173.529 413.607C173.884 413.394 174.345 413.509 174.558 413.864ZM160.824 421.361C161.003 421.735 160.845 422.183 160.471 422.361C158.075 423.507 155.697 424.565 153.337 425.537C152.954 425.695 152.516 425.512 152.358 425.129C152.2 424.746 152.383 424.308 152.766 424.15C155.099 423.189 157.453 422.142 159.824 421.008C160.198 420.829 160.646 420.988 160.824 421.361ZM77.7193 422.386C77.942 422.037 78.4057 421.935 78.7549 422.157C80.9266 423.542 83.1656 424.789 85.4684 425.894C85.8418 426.074 85.9991 426.522 85.8198 426.895C85.6405 427.269 85.1924 427.426 84.819 427.247C82.4618 426.115 80.1703 424.839 77.9483 423.422C77.5991 423.199 77.4966 422.736 77.7193 422.386ZM146.491 427.343C146.625 427.735 146.416 428.161 146.024 428.295C143.498 429.159 140.996 429.921 138.52 430.582C138.119 430.689 137.708 430.451 137.601 430.051C137.495 429.651 137.732 429.24 138.133 429.133C140.574 428.481 143.044 427.729 145.538 426.876C145.93 426.742 146.357 426.951 146.491 427.343ZM91.6328 429.266C91.7658 428.874 92.1917 428.663 92.584 428.796C94.9941 429.614 97.4642 430.292 99.9908 430.829C100.396 430.915 100.655 431.313 100.568 431.718C100.482 432.124 100.084 432.382 99.6789 432.296C97.0956 431.747 94.5687 431.054 92.1022 430.217C91.7099 430.084 91.4998 429.658 91.6328 429.266ZM131.48 431.443C131.556 431.85 131.288 432.242 130.881 432.318C128.266 432.806 125.683 433.178 123.136 433.433C122.724 433.474 122.356 433.173 122.315 432.761C122.274 432.349 122.574 431.981 122.986 431.94C125.49 431.689 128.03 431.324 130.605 430.843C131.013 430.767 131.404 431.036 131.48 431.443ZM106.78 432.675C106.82 432.263 107.187 431.962 107.6 432.002C110.111 432.249 112.672 432.366 115.278 432.352C115.692 432.349 116.03 432.683 116.032 433.098C116.034 433.512 115.7 433.849 115.286 433.852C112.63 433.866 110.018 433.747 107.453 433.495C107.041 433.455 106.739 433.088 106.78 432.675Z" fill="#007AFF"/>
<path fill-rule="evenodd" clip-rule="evenodd" d="M401.5 0C401.914 0 402.25 0.335786 402.25 0.75C402.25 1.84148 402.114 3.15647 401.856 4.66063C401.786 5.0689 401.399 5.34316 400.99 5.27322C400.582 5.20327 400.308 4.81561 400.378 4.40734C400.627 2.95163 400.75 1.7271 400.75 0.75C400.75 0.335786 401.086 0 401.5 0ZM399.489 11.4049C399.886 11.5219 400.113 11.9388 399.996 12.3362C399.328 14.6063 398.517 17.0888 397.57 19.7487C397.431 20.1389 397.002 20.3427 396.612 20.2039C396.222 20.065 396.018 19.6361 396.157 19.2458C397.096 16.6079 397.898 14.152 398.557 11.9125C398.674 11.5152 399.091 11.2879 399.489 11.4049ZM394.371 26.1195C394.756 26.2732 394.943 26.7096 394.789 27.0943C393.863 29.4126 392.856 31.8233 391.774 34.3093C391.608 34.6891 391.166 34.8629 390.787 34.6975C390.407 34.5321 390.233 34.0902 390.398 33.7104C391.475 31.2378 392.476 28.8412 393.396 26.5376C393.55 26.153 393.986 25.9658 394.371 26.1195ZM388.205 40.4126C388.581 40.5881 388.743 41.0344 388.567 41.4097C387.493 43.7086 386.361 46.0539 385.176 48.4342C384.992 48.8051 384.542 48.956 384.171 48.7714C383.8 48.5868 383.649 48.1366 383.834 47.7658C385.013 45.3964 386.139 43.0622 387.208 40.7745C387.384 40.3992 387.83 40.2372 388.205 40.4126ZM381.302 54.3648C381.669 54.5582 381.809 55.0119 381.616 55.3782C380.418 57.6468 379.176 59.9361 377.891 62.237C377.689 62.5987 377.232 62.7281 376.871 62.5262C376.509 62.3242 376.38 61.8674 376.582 61.5057C377.861 59.2153 379.097 56.9363 380.289 54.678C380.482 54.3117 380.936 54.1715 381.302 54.3648ZM373.747 67.9665C374.104 68.177 374.223 68.6369 374.012 68.9936C372.701 71.2154 371.351 73.4397 369.967 75.658C369.747 76.0094 369.285 76.1164 368.933 75.897C368.582 75.6777 368.475 75.215 368.694 74.8637C370.072 72.6562 371.415 70.4426 372.72 68.2311C372.931 67.8744 373.391 67.7559 373.747 67.9665ZM365.538 81.1826C365.883 81.4111 365.978 81.8764 365.75 82.2219C364.317 84.3883 362.851 86.5413 361.354 88.6728C361.116 89.0117 360.648 89.0935 360.309 88.8554C359.97 88.6174 359.889 88.1496 360.127 87.8106C361.616 85.691 363.073 83.5497 364.499 81.3945C364.727 81.049 365.192 80.9541 365.538 81.1826ZM356.62 93.9449C356.952 94.1932 357.019 94.6632 356.771 94.9948C355.206 97.0847 353.611 99.1452 351.987 101.168C351.728 101.491 351.256 101.543 350.933 101.284C350.61 101.025 350.558 100.552 350.817 100.229C352.43 98.22 354.015 96.1728 355.57 94.0956C355.818 93.7641 356.288 93.6966 356.62 93.9449ZM194.702 101.826C191.883 101.656 189.174 101.742 186.571 102.062C186.16 102.113 185.786 101.82 185.735 101.409C185.685 100.998 185.977 100.624 186.388 100.573C189.084 100.242 191.884 100.153 194.793 100.329C195.206 100.354 195.521 100.709 195.496 101.123C195.471 101.536 195.115 101.851 194.702 101.826ZM202.26 102.088C202.349 101.684 202.75 101.428 203.154 101.517C205.752 102.09 208.426 102.862 211.18 103.846C211.57 103.986 211.773 104.415 211.634 104.805C211.495 105.195 211.065 105.398 210.675 105.259C207.977 104.295 205.363 103.541 202.831 102.982C202.427 102.893 202.171 102.493 202.26 102.088ZM179.084 102.899C179.214 103.293 179.001 103.717 178.608 103.847C176.009 104.706 173.526 105.813 171.15 107.139C170.789 107.341 170.332 107.211 170.13 106.85C169.928 106.488 170.058 106.031 170.419 105.829C172.873 104.46 175.444 103.314 178.137 102.423C178.53 102.293 178.954 102.506 179.084 102.899ZM346.913 106.111C347.226 106.382 347.26 106.856 346.989 107.169C345.272 109.152 343.527 111.088 341.757 112.968C341.473 113.269 340.998 113.283 340.697 112.999C340.395 112.715 340.381 112.241 340.665 111.939C342.42 110.076 344.151 108.155 345.855 106.187C346.126 105.874 346.599 105.84 346.913 106.111ZM217.913 107.431C218.092 107.057 218.539 106.898 218.913 107.077C221.324 108.225 223.793 109.528 226.319 110.994C226.677 111.202 226.799 111.661 226.592 112.019C226.384 112.377 225.925 112.499 225.566 112.291C223.073 110.845 220.641 109.561 218.268 108.431C217.894 108.253 217.735 107.805 217.913 107.431ZM164.493 110.664C164.752 110.988 164.699 111.46 164.376 111.718C162.271 113.403 160.262 115.268 158.346 117.286C158.06 117.587 157.586 117.599 157.285 117.314C156.985 117.029 156.973 116.554 157.258 116.254C159.217 114.19 161.275 112.279 163.439 110.547C163.762 110.288 164.234 110.341 164.493 110.664ZM232.362 115.636C232.593 115.292 233.059 115.2 233.403 115.431C235.623 116.922 237.886 118.533 240.192 120.269C240.523 120.519 240.589 120.989 240.34 121.32C240.091 121.651 239.621 121.717 239.29 121.468C237.004 119.747 234.763 118.151 232.567 116.676C232.223 116.446 232.131 115.98 232.362 115.636ZM336.287 117.466C336.575 117.764 336.566 118.239 336.268 118.526C334.369 120.357 332.445 122.117 330.495 123.797C330.181 124.068 329.708 124.032 329.437 123.719C329.167 123.405 329.202 122.931 329.516 122.661C331.443 121 333.347 119.259 335.227 117.447C335.525 117.159 336 117.168 336.287 117.466ZM152.889 122.506C153.219 122.757 153.283 123.228 153.032 123.557C151.39 125.715 149.827 127.984 148.337 130.343C148.116 130.693 147.653 130.798 147.303 130.577C146.952 130.355 146.848 129.892 147.069 129.542C148.58 127.15 150.168 124.844 151.838 122.649C152.089 122.319 152.56 122.256 152.889 122.506ZM245.67 125.53C245.934 125.211 246.407 125.166 246.726 125.43C247.805 126.32 248.892 127.238 249.989 128.182C251.009 129.059 252.028 129.892 253.048 130.682C253.375 130.936 253.435 131.407 253.182 131.734C252.928 132.062 252.457 132.121 252.129 131.868C251.089 131.062 250.049 130.212 249.011 129.318C247.921 128.381 246.841 127.47 245.771 126.586C245.452 126.322 245.406 125.85 245.67 125.53ZM324.555 127.665C324.805 127.995 324.738 128.466 324.408 128.715C322.288 130.312 320.143 131.809 317.974 133.193C317.625 133.416 317.161 133.313 316.939 132.964C316.716 132.615 316.818 132.151 317.167 131.928C319.301 130.567 321.414 129.093 323.505 127.517C323.836 127.268 324.306 127.334 324.555 127.665ZM258.333 135.287C258.548 134.933 259.009 134.819 259.363 135.034C261.633 136.407 263.901 137.576 266.163 138.554C266.544 138.718 266.719 139.16 266.555 139.54C266.39 139.92 265.949 140.095 265.569 139.931C263.241 138.925 260.913 137.724 258.587 136.317C258.232 136.103 258.119 135.642 258.333 135.287ZM311.494 136.103C311.683 136.472 311.538 136.924 311.17 137.113C308.799 138.331 306.403 139.406 303.987 140.323C303.6 140.47 303.167 140.275 303.02 139.888C302.873 139.501 303.068 139.068 303.455 138.921C305.815 138.025 308.159 136.974 310.484 135.779C310.853 135.59 311.305 135.735 311.494 136.103ZM143.879 136.464C144.244 136.66 144.381 137.115 144.185 137.48C142.889 139.892 141.658 142.365 140.487 144.879C140.312 145.255 139.866 145.418 139.491 145.243C139.115 145.068 138.953 144.622 139.127 144.246C140.309 141.709 141.553 139.21 142.864 136.77C143.06 136.405 143.514 136.268 143.879 136.464ZM272.478 141.582C272.582 141.18 272.991 140.939 273.392 141.043C275.908 141.692 278.417 142.118 280.917 142.335C281.329 142.371 281.635 142.735 281.599 143.147C281.563 143.56 281.2 143.865 280.787 143.83C278.205 143.605 275.614 143.166 273.017 142.495C272.616 142.392 272.375 141.983 272.478 141.582ZM297.016 141.736C297.111 142.139 296.861 142.542 296.457 142.637C293.88 143.241 291.283 143.653 288.67 143.858C288.258 143.89 287.897 143.582 287.864 143.169C287.832 142.756 288.14 142.395 288.553 142.362C291.086 142.164 293.608 141.764 296.115 141.176C296.518 141.082 296.922 141.332 297.016 141.736ZM136.768 151.489C137.151 151.646 137.335 152.084 137.178 152.467C136.129 155.032 135.137 157.616 134.198 160.2C134.056 160.589 133.626 160.79 133.237 160.648C132.847 160.507 132.647 160.077 132.788 159.687C133.733 157.087 134.732 154.484 135.79 151.899C135.946 151.516 136.384 151.332 136.768 151.489ZM131.021 167.089C131.415 167.217 131.63 167.641 131.501 168.035C130.629 170.709 129.81 173.36 129.041 175.964C128.923 176.362 128.506 176.588 128.109 176.471C127.712 176.354 127.485 175.937 127.602 175.539C128.375 172.923 129.198 170.259 130.075 167.569C130.204 167.176 130.627 166.961 131.021 167.089ZM126.259 183.02C126.659 183.128 126.895 183.54 126.787 183.94C126.42 185.295 126.067 186.63 125.726 187.939C125.378 189.273 124.995 190.583 124.577 191.868C124.449 192.262 124.026 192.478 123.632 192.349C123.238 192.221 123.023 191.798 123.151 191.404C123.559 190.148 123.934 188.867 124.274 187.561C124.616 186.248 124.971 184.909 125.339 183.548C125.448 183.148 125.859 182.912 126.259 183.02ZM121.217 198.462C121.592 198.638 121.752 199.085 121.576 199.46C120.403 201.954 119.084 204.335 117.631 206.6C117.408 206.948 116.944 207.05 116.595 206.826C116.246 206.602 116.145 206.138 116.369 205.79C117.787 203.58 119.073 201.257 120.219 198.821C120.395 198.446 120.842 198.285 121.217 198.462ZM-24.5994 208.799C-24.3504 208.468 -23.8802 208.402 -23.5492 208.651C-22.4683 209.463 -21.3831 210.258 -20.2939 211.033C-19.9565 211.274 -19.8778 211.742 -20.118 212.079C-20.3583 212.417 -20.8266 212.496 -21.164 212.255C-22.2638 211.472 -23.3596 210.67 -24.4508 209.849C-24.7818 209.6 -24.8484 209.13 -24.5994 208.799ZM112.684 212.112C113 212.38 113.038 212.853 112.77 213.169C111.005 215.25 109.107 217.206 107.09 219.033C106.783 219.311 106.309 219.288 106.031 218.981C105.753 218.674 105.776 218.2 106.083 217.922C108.052 216.137 109.904 214.229 111.627 212.198C111.895 211.883 112.368 211.844 112.684 212.112ZM-14.6683 215.749C-14.4462 215.399 -13.9827 215.296 -13.6331 215.518C-11.3495 216.969 -9.05258 218.341 -6.74619 219.635C-6.38498 219.838 -6.25652 220.295 -6.45925 220.656C-6.66198 221.018 -7.11915 221.146 -7.48036 220.943C-9.81062 219.635 -12.1309 218.249 -14.4375 216.784C-14.7871 216.562 -14.8905 216.098 -14.6683 215.749ZM100.888 223.075C101.125 223.414 101.042 223.882 100.702 224.119C98.4871 225.667 96.1657 227.088 93.749 228.38C93.3837 228.575 92.9293 228.437 92.734 228.072C92.5388 227.706 92.6766 227.252 93.0419 227.057C95.4075 225.792 97.678 224.403 99.8433 222.89C100.183 222.652 100.65 222.735 100.888 223.075ZM-0.636127 223.714C-0.454069 223.341 -0.00486946 223.187 0.367189 223.37C2.80164 224.561 5.24225 225.667 7.68466 226.691C8.0667 226.851 8.24667 227.29 8.08662 227.672C7.92657 228.054 7.48712 228.234 7.10508 228.074C4.63559 227.04 2.1684 225.921 -0.292101 224.717C-0.66416 224.535 -0.818186 224.086 -0.636127 223.714ZM14.2221 230.029C14.3588 229.638 14.7866 229.432 15.1776 229.568C17.7304 230.461 20.2803 231.263 22.8224 231.975C23.2212 232.087 23.4538 232.501 23.342 232.9C23.2301 233.299 22.8162 233.532 22.4173 233.42C19.8448 232.698 17.2649 231.887 14.6827 230.984C14.2916 230.848 14.0855 230.42 14.2221 230.029ZM86.7735 230.838C86.9271 231.223 86.7398 231.659 86.3551 231.813C83.8577 232.81 81.2815 233.685 78.636 234.438C78.2376 234.551 77.8228 234.32 77.7095 233.921C77.5962 233.523 77.8274 233.108 78.2258 232.995C80.8232 232.256 83.3505 231.397 85.7989 230.42C86.1836 230.266 86.6199 230.453 86.7735 230.838ZM29.7355 234.47C29.8208 234.065 30.2186 233.806 30.6239 233.891C33.2739 234.449 35.9094 234.91 38.5248 235.275C38.935 235.332 39.2212 235.711 39.1639 236.121C39.1067 236.532 38.7277 236.818 38.3175 236.761C35.6675 236.391 32.998 235.924 30.3148 235.359C29.9094 235.273 29.6501 234.876 29.7355 234.47ZM71.3152 235.41C71.3901 235.817 71.1206 236.208 70.7132 236.283C68.0744 236.768 65.3808 237.14 62.6405 237.397C62.2281 237.436 61.8625 237.133 61.8238 236.72C61.7852 236.308 62.0881 235.942 62.5005 235.904C65.1978 235.651 67.8475 235.285 70.4419 234.808C70.8493 234.733 71.2403 235.002 71.3152 235.41ZM45.6951 236.795C45.7224 236.381 46.0796 236.069 46.4929 236.096C49.1976 236.275 51.8732 236.348 54.5129 236.319C54.9271 236.314 55.2667 236.646 55.2713 237.06C55.276 237.474 54.944 237.814 54.5298 237.818C51.8507 237.849 49.1365 237.774 46.394 237.593C45.9807 237.565 45.6678 237.208 45.6951 236.795Z" fill="#007AFF"/>
<path d="M271.5 387.05C271.5 387.05 275 310.35 273.4 308.25C271.9 306.15 247.4 274.15 247.4 274.15L232.8 313.75L271.5 387.05Z" fill="#007AFF"/>
<path d="M58.3 178.05C60.5 185.35 62.6 192.75 64.8 200.05C64.8 200.05 86.7 194.25 86.5 193.35C86.2 192.45 77.2 173.45 77.2 173.45C75 173.35 72.1 173.45 68.9 174.05C64.3 175.05 60.7 176.65 58.3 178.05Z" fill="#FFA07F"/>
<path d="M169.5 283.15L119.8 250.45L91.1 177.55L49.1 184.65C49.1 184.65 70.3 262.55 85.6 285.05C94.1 297.55 153.6 332.55 153.6 332.55L169.5 283.15Z" fill="#007AFF"/>
<path opacity="0.2" d="M106 255.15C109 254.15 112 253.05 115.1 252.05C116.8 251.55 118.3 253.45 117.1 254.85C115.8 256.45 114.7 258.15 113.8 260.05C113 261.75 112.7 263.65 111.9 265.35C111.5 266.15 110.3 265.95 110.2 265.05C109.9 262.45 110.7 259.55 111.9 257.05C110.5 257.55 109.1 258.05 107.7 258.55C106.4 259.05 103.4 260.55 102.6 258.35C101.9 256.35 104.7 255.55 106 255.15Z" fill="#131313"/>
<path d="M62.3 114.45C64.6 113.95 79.1 147.95 79.1 147.95C80.9 142.35 84.6 137.35 89.6 134.15L89.7 134.05C90.2 133.75 90.7 133.55 91.1 133.85C91.3 133.95 91.5 134.15 91.6 134.35C92.7 136.15 92.5 138.45 91.8 140.45C91.1 142.45 90 144.25 89.1 146.05C87.4 149.65 87.1 153.75 86.8 157.75C86.4 164.55 75.9375 170.406 75.9375 170.406C75.9375 170.406 76.7188 172.187 77.3594 173.859L58.3 178.25L56 170.35L51.9 167.15C49.3 164.55 38.6 130.75 40.6 129.45C41.1 129.05 41.7 128.75 42.4 128.45C43.3 127.95 44.3 127.65 44.9 127.35C45.4 127.15 45.6 127.05 45.6 127.05C45.6 127.05 46.4 126.05 47.5 124.95C48.1 124.25 48.9 123.65 49.6 123.15C50.4 122.65 51.1 122.35 51.7 122.55C52.3 122.75 53.6 124.55 55.2 127.05C59.2 133.15 64.9 143.15 65.3 142.35C65.8 141.25 59.1 116.65 59.1 116.65C59.1 116.65 59.5 115.95 60.4 115.35C60.8 114.95 61.4 114.65 62.3 114.45Z" fill="#FFA07F"/>
<path d="M47.4 124.95C47.7 125.55 47.9 126.15 48.2 126.85C49.9 130.45 51.9 133.55 53.4 135.65C54.8 137.65 55.9 138.85 56 139.05C55.9 138.85 55.4 137.35 54.6 135.05C53.7 132.55 52.3 129.25 50.7 125.65C50.3 124.75 49.9 123.95 49.5 123.15C48.8 123.65 48.1 124.35 47.4 124.95Z" fill="#FF7D6F"/>
<path d="M42.3 128.45C44.9 134.25 48 138.45 48.2 138.75C48.1 138.45 47.2 133.25 44.8 127.35C44.2 127.55 43.3 127.95 42.3 128.45Z" fill="#FF7D6F"/>
<path d="M281.5 438.65C266.1 446.95 249.6 453.45 232.1 457.65C231.1 457.95 230 458.15 229 458.35C225.5 459.15 222 459.85 218.4 460.45C206.6 462.55 194.4 463.65 182 463.65C174.2 463.65 166.5 463.25 158.9 462.35C155.5 461.95 152.1 461.55 148.8 460.95C148.9 451.05 148.9 438.45 148.1 425.35C147 407.65 147.9 364.95 151.1 330.85C153.3 307.75 156.5 288.55 160.9 283.65C159.7 281.35 159 278.85 159.1 276.15C159.1 274.95 159.3 273.65 159.7 272.25C161.6 265.65 167.9 260.75 174.7 260.35C175.1 260.35 175.6 260.35 176 260.35C176 260.35 176 260.35 176 260.25C176.3 255.45 178.2 251.05 181.1 247.15C182.3 245.55 183.7 243.95 185.2 242.55C188.7 239.35 192.9 236.75 197.4 235.15C198.5 234.75 199.5 234.35 200.6 234.05C205.6 232.55 210.8 231.95 216.1 231.85C219 231.75 222 231.85 224.9 231.95C225.4 231.95 225.9 231.95 226.4 232.05C227 232.05 227.6 232.15 228.2 232.15C228.4 232.15 228.6 232.15 228.8 232.15C229 232.15 229.3 232.15 229.5 232.25C230.3 232.25 231.1 232.35 231.8 232.45C232.9 232.55 233.9 232.65 235 232.75C235.4 232.75 235.8 232.85 236.2 232.85C236.5 232.85 236.7 232.95 237 232.95C240.9 233.45 244.8 234.45 248.1 236.85C250 238.25 251.7 239.95 252.6 242.15C256.3 250.35 249.5 258.05 243 263.35C247.3 264.45 250.5 267.85 252.2 271.85C253.6 275.05 254.1 278.75 253.6 282.25C253.6 282.35 253.6 282.45 253.6 282.55C253.4 283.65 253.1 284.75 252.8 285.85C251.8 288.95 250.2 291.85 248.2 294.55C248.4 294.85 248.5 295.15 248.6 295.35C248.7 295.85 253.2 313.25 258.5 334.15C259.3 337.15 260 340.15 260.8 343.15C264.7 358.45 268.7 374.65 271.6 386.95C271.8 387.85 272 388.75 272.2 389.65C272.3 390.15 272.4 390.65 272.6 391.15V391.25C274.3 398.45 275.4 403.85 275.7 406.25C276.3 411.25 278.1 420.95 280 430.85C280.5 433.55 281 436.15 281.5 438.65Z" fill="#007AFF"/>
<path opacity="0.2" d="M193.9 265.25C193.9 265.25 184.3 268.95 183.2 277.15C182.1 285.35 190.7 288.15 190.7 288.15L218.3 276.55C218.3 276.55 234.3 272.85 236.2 264.95C238.1 257.05 218.9 254.95 218.9 254.95L193.9 265.25Z" fill="#131313"/>
<g opacity="0.2">
<path d="M243 452.55C241.2 453.35 237.2 454.85 231.9 456.55C230.9 456.85 229.8 457.25 228.6 457.55C225.5 458.55 222.1 459.55 218.5 460.55C206.7 462.65 194.5 463.75 182.1 463.75C174.3 463.75 166.6 463.35 159 462.45C158.1 453.05 155.7 422.85 160.7 417.75C164.9 413.45 191.7 408.85 209.2 406.05C213.2 405.45 216.6 404.85 219.3 404.45C219.8 404.35 220.3 404.25 220.8 404.25C222.2 404.05 223.3 403.85 223.9 403.65C225.3 403.35 227.6 405.55 230.1 409.25C230.5 409.95 231 410.55 231.4 411.35C235.2 417.45 239.4 426.15 242.1 434.05C242.8 436.15 243.5 438.25 244 440.15C245.5 446.45 245.6 451.35 243 452.55Z" fill="#131313"/>
</g>
<path opacity="0.2" d="M238.7 288.85C223.8 301.35 204.2 306.55 185.8 311.45C177.8 305.35 171.5 299.75 166.4 290.95C166 290.35 165.2 290.75 165.4 291.45C168.4 300.55 177 307.95 184.4 313.55C185.1 314.05 185.8 313.75 186.1 313.15C204.2 310.55 226.9 303.85 240.3 290.85C241.6 289.75 240 287.75 238.7 288.85Z" fill="#131313"/>
<path d="M190.7 288.25C200.7 284.15 210.8 280.05 220.8 275.95C219.9 268.85 219.4 263.15 219.2 259.05C218.9 253.95 218.4 245.75 218.4 245.75L192.4 250.95L193.8 267.75C193.7 269.35 193.6 270.95 193.4 272.55C192.6 277.75 191.6 282.95 190.7 288.25Z" fill="#FFA07F"/>
<path d="M192.4 250.95L193.8 267.75C199.4 268.65 205.1 267.15 210.2 264.65C213.4 263.05 216.2 261.15 219.1 259.05C218.9 251.85 218.3 245.75 218.3 245.75L192.4 250.95Z" fill="#FF7D6F"/>
<path d="M224 247.45C224 247.45 223.1 249.35 219.7 251.75C219.4 251.95 219 252.25 218.6 252.45C218.6 252.45 218 252.85 217.3 253.25C206.5 259.25 197.3 260.45 197.3 260.45C190.4 261.35 183 262.35 177.4 257.85C173 254.35 171.7 249.25 170.4 244.15C169.7 241.45 169.7 240.35 169.4 227.25C169.1 213.55 168.9 207.85 171.4 200.35C171.8 199.05 172.2 198.05 172.5 197.35C174.4 194.05 177.3 189.95 182.1 186.95C195.4 178.35 215.3 182.75 228.1 194.55C232.4 198.45 224 247.45 224 247.45Z" fill="#FFA07F"/>
<path d="M171.5 213.75C171.8 213.15 175.1 207.15 178.3 207.55C179.2 207.65 181.2 208.45 181.1 208.95C181.1 209.05 181 209.15 180.9 209.15L171.5 213.75Z" fill="#131313"/>
<path d="M213.9 212.95C211.5 211.55 201 205.25 198.9 207.05C198.5 207.35 198.2 207.95 198.1 208.65C198.1 208.65 198.1 208.85 198.4 210.25L213.9 212.95Z" fill="#131313"/>
<path d="M183.4 233.45C183.5 234.25 184.3 234.75 184.7 234.95C185.5 235.45 186.3 235.45 187.5 235.35C188.4 235.35 189.6 235.25 191 234.45C191.5 234.15 191.9 233.95 192.2 233.45C192.8 232.45 192.5 231.15 192.4 230.85C191 231.45 188.7 232.25 185.9 231.85C185.4 231.75 184.9 231.65 184.4 231.45C183.7 232.05 183.3 232.75 183.4 233.45Z" fill="#FF7D6F"/>
<path d="M213.8 222.95C213.8 222.95 205.5 212.85 196.2 221.75C196.2 221.75 205 219.35 213.8 222.95Z" fill="#131313"/>
<path d="M181.2 222.05C181.2 222.05 176.5 215.55 171 221.45C171 221.45 176.1 219.85 181.2 222.05Z" fill="#131313"/>
<path d="M179.5 243.95C182.5 243.95 186.2 243.65 190.4 242.85C194.9 241.95 198.7 240.65 201.6 239.35C201.7 239.95 202.7 245.65 198.9 249.35C197.5 250.65 195.5 251.75 192.5 251.95C181.3 252.95 179.5 243.95 179.5 243.95Z" fill="white"/>
<path d="M186.7 172.25C186.7 172.25 201.5 165.65 215.3 172.25C229.1 178.85 231.8 188.25 231.8 188.25C231.8 188.25 242.2 190.65 244.6 196.05C246.9 201.45 241 211.05 241 211.05L186.7 172.25Z" fill="#131313"/>
<path d="M172.1 185.25C168.8 186.35 166.4 189.35 165.3 192.65C164.2 195.95 164.1 199.45 164.1 202.95C164.1 206.45 164.2 209.95 163.3 213.35C167.6 212.25 170.8 206.75 171.8 202.45C177.7 202.55 186.7 193.85 186.7 193.85L187.9 198.15C188.5 200.05 190.3 201.35 192.3 201.25C199.9 200.65 212 196.35 212 196.35L212.8 198.05C213.7 200.05 215.9 201.35 218.1 200.95C222.3 200.25 225.1 198.75 225.1 198.75L223.3 210.75C223 212.55 223.2 214.35 223.7 216.05L226.7 226.45C228.5 224.35 231.3 223.95 233.1 225.05C234.9 226.15 235 228.45 235.1 228.75C235.8 226.55 236.4 224.35 237.1 222.15C237.8 220.15 239 216.95 239.7 214.95L240.8 212.35C240.8 212.25 240.9 212.15 240.9 211.95C241 211.45 241.2 210.75 241.1 209.95C241.1 209.55 241 208.85 240.6 208.15C239.8 205.25 238.4 203.45 237.4 202.45C236.3 201.25 234.6 200.15 231.4 197.75C230.8 197.25 230.2 196.85 229.6 196.35C228.8 195.75 228.1 195.05 227.4 194.35C224.3 191.35 221.7 187.95 218.6 184.95C212.9 179.35 205.8 175.15 197.9 173.35C190.1 171.55 181.7 172.35 174.5 175.85C172.3 176.95 170.2 178.25 167.9 179.15C167.8 179.15 167.7 179.25 167.6 179.25C165.4 180.05 162.9 180.45 160.7 179.85C162.8 183.55 167.6 186.05 172.1 185.25Z" fill="#131313"/>
<path d="M203.4 178.65C203.9 181.85 203.8 185.15 203.1 188.25C207.9 187.45 212.5 185.45 216.4 182.55C211.1 178.05 204.8 174.65 198 173.05C190.8 171.45 183.1 171.95 176.3 174.75C180.8 177.05 185.8 178.45 190.8 177.85C189.6 179.65 188.3 181.35 187.1 183.05C192.8 182.85 198.4 181.25 203.4 178.65Z" fill="#131313"/>
<path d="M219.4 248.15C221.2 247.95 224.1 247.45 227.1 245.85C228.9 244.95 231.6 243.55 233.6 240.65C237.8 234.65 235.6 227.45 234.4 224.85C233.8 223.55 233.2 222.75 232.2 222.45C230 221.85 227.7 224.95 227.6 225.15C227 225.85 226.7 226.35 226.7 226.35L219.4 248.15Z" fill="#FFA07F"/>
<path fill-rule="evenodd" clip-rule="evenodd" d="M230.662 226.857C231.004 227.058 231.103 227.474 230.883 227.786L226.692 233.74L229.45 238.777C229.631 239.109 229.484 239.513 229.12 239.679C228.757 239.845 228.314 239.71 228.133 239.378L225 233.657L229.644 227.059C229.864 226.746 230.32 226.656 230.662 226.857Z" fill="#FF7D6F"/>
<mask id="mask0_126_8486" style="mask-type:luminance" maskUnits="userSpaceOnUse" x="187" y="313" width="43" height="38">
<path d="M222.115 313.522L187.979 323.27L195.777 350.579L229.914 340.831L222.115 313.522Z" fill="white"/>
</mask>
<g mask="url(#mask0_126_8486)">
<mask id="mask1_126_8486" style="mask-type:luminance" maskUnits="userSpaceOnUse" x="188" y="318" width="42" height="28">
<path d="M223.6 318.65L229.9 340.45C227.1 340.65 225.2 341.55 223.4 342.25C221.6 343.05 219.8 343.85 217 344.05C214.2 344.25 213.2 343.75 212.2 343.25C211.2 342.75 210.1 342.15 207.3 342.35C204.5 342.55 202.6 343.45 200.8 344.15C199 344.95 197.2 345.75 194.4 345.95L188.1 324.15C190.9 323.95 192.7 323.15 194.5 322.35C196.3 321.55 198.1 320.75 201 320.55C203.8 320.35 204.9 320.85 205.9 321.45C206.9 321.95 207.9 322.55 210.7 322.25C213.5 322.05 215.3 321.25 217.1 320.45C218.9 319.75 220.8 318.95 223.6 318.65Z" fill="white"/>
</mask>
<g mask="url(#mask1_126_8486)">
<path d="M189.4 328.65C192.3 329.45 194.3 329.85 197.1 330.25C197 330.25 196.9 330.35 196.9 330.35C195.1 331.15 193.3 331.95 190.5 332.15L189.4 328.65ZM192.2 338.25C195 338.05 196.8 337.25 198.6 336.45C198.7 336.45 198.8 336.35 198.8 336.35C197 338.75 195.7 340.35 193.2 341.85L192.2 338.25ZM224.8 322.95L225.9 326.65C223.1 326.85 221.2 327.75 219.4 328.45C219.3 328.55 219.2 328.55 219 328.65C221 325.95 222.3 324.35 224.8 322.95ZM227.7 332.65L228.8 336.35C226.1 335.55 225.3 335.45 220.9 334.65C221 334.55 221.2 334.55 221.3 334.45C223 333.65 224.8 332.85 227.7 332.65ZM207.9 322.25C208.6 322.35 209.5 322.45 210.7 322.35C213.5 322.15 215.3 321.35 217.1 320.55C217.3 320.45 217.5 320.35 217.7 320.25C215.6 323.05 215.2 323.55 214.1 324.55C212.7 325.75 211 326.55 209.4 327.65L207.9 322.25ZM194.5 322.45C196.3 321.65 198.1 320.85 201 320.65C202.1 320.55 203 320.55 203.7 320.65L205.2 325.95C203.3 324.65 200.8 324.05 193.8 322.75C194 322.65 194.3 322.55 194.5 322.45ZM212.7 338.85C213.9 339.75 215.2 340.65 223.9 342.15C223.8 342.25 223.6 342.25 223.5 342.35C221.7 343.15 219.9 343.95 217.1 344.15C215.9 344.25 215 344.25 214.3 344.05L212.7 338.85ZM208.5 337.25L210 342.45C209.3 342.35 208.5 342.35 207.3 342.45C204.5 342.65 202.6 343.55 200.8 344.25C200.6 344.35 200.4 344.45 200.2 344.45C201.7 342.45 202.6 341.35 203.9 340.15C204.6 339.55 205.3 339.05 205.5 338.95C206.5 338.35 207.5 337.85 208.5 337.25Z" fill="#253B78"/>
<mask id="mask2_126_8486" style="mask-type:luminance" maskUnits="userSpaceOnUse" x="188" y="318" width="42" height="29">
<path d="M188.1 324.25C190.9 324.05 192.7 323.25 194.5 322.45C196.3 321.65 198.1 320.85 201 320.65C203.8 320.45 204.9 320.95 205.9 321.55C206.9 322.05 207.9 322.65 210.7 322.35C213.5 322.15 215.3 321.35 217.1 320.55C218.9 319.75 220.7 318.95 223.6 318.75L229.9 340.55C227.1 340.75 225.2 341.65 223.4 342.35C221.6 343.15 219.8 343.95 217 344.15C214.2 344.35 213.2 343.85 212.2 343.35C211.2 342.85 210.1 342.25 207.3 342.45C204.5 342.65 202.6 343.55 200.8 344.25C199 345.05 197.2 345.85 194.4 346.05L188.1 324.25Z" fill="white"/>
</mask>
<g mask="url(#mask2_126_8486)">
<path d="M193.8 322.75C193.9 322.75 201.8 323.65 205.2 325.95L205.6 327.45C204.1 326.45 203.1 326.15 201.3 325.65C198 324.75 194.6 324.35 191.3 323.65C192.2 323.45 193 323.15 193.8 322.75ZM188.4 325.35C193.3 326.75 198.4 327.25 203.3 328.55C200.6 328.75 198.8 329.55 197.1 330.25C193.6 329.65 191.9 329.35 189.4 328.65L188.4 325.35ZM220.8 334.65C220.8 334.65 224.5 335.15 228.7 336.35L229.6 339.45C224.9 338.15 220 337.65 215.3 336.25C217.6 335.95 219.3 335.35 220.8 334.65ZM212.2 337.05C213.6 338.15 214.8 338.45 216.3 338.95C219.7 339.85 223.3 340.35 226.7 341.15C225.6 341.45 224.7 341.85 223.8 342.25C215.2 340.85 213.9 339.85 212.6 338.95L212.2 337.05Z" fill="white"/>
</g>
<mask id="mask3_126_8486" style="mask-type:luminance" maskUnits="userSpaceOnUse" x="188" y="318" width="42" height="29">
<path d="M188.1 324.25C190.9 324.05 192.7 323.25 194.5 322.45C196.3 321.65 198.1 320.85 201 320.65C203.8 320.45 204.9 320.95 205.9 321.55C206.9 322.05 207.9 322.65 210.7 322.35C213.5 322.15 215.3 321.35 217.1 320.55C218.9 319.75 220.7 318.95 223.6 318.75L229.9 340.55C227.1 340.75 225.2 341.65 223.4 342.35C221.6 343.15 219.8 343.95 217 344.15C214.2 344.35 213.2 343.85 212.2 343.35C211.2 342.85 210.1 342.25 207.3 342.45C204.5 342.65 202.6 343.55 200.8 344.25C199 345.05 197.2 345.85 194.4 346.05L188.1 324.25Z" fill="white"/>
</mask>
<g mask="url(#mask3_126_8486)">
<path d="M188.1 324.25C189.3 324.15 190.3 323.95 191.3 323.65C194.6 324.35 198 324.75 201.3 325.65C203.1 326.15 204.2 326.45 205.6 327.45L205.9 328.65C205.2 328.55 204.4 328.55 203.2 328.65C198.3 327.25 193.2 326.85 188.3 325.45L188.1 324.25Z" fill="#FC4F62"/>
</g>
<mask id="mask4_126_8486" style="mask-type:luminance" maskUnits="userSpaceOnUse" x="188" y="318" width="42" height="29">
<path d="M188.1 324.25C190.9 324.05 192.7 323.25 194.5 322.45C196.3 321.65 198.1 320.85 201 320.65C203.8 320.45 204.9 320.95 205.9 321.55C206.9 322.05 207.9 322.65 210.7 322.35C213.5 322.15 215.3 321.35 217.1 320.55C218.9 319.75 220.7 318.95 223.6 318.75L229.9 340.55C227.1 340.75 225.2 341.65 223.4 342.35C221.6 343.15 219.8 343.95 217 344.15C214.2 344.35 213.2 343.85 212.2 343.35C211.2 342.85 210.1 342.25 207.3 342.45C204.5 342.65 202.6 343.55 200.8 344.25C199 345.05 197.2 345.85 194.4 346.05L188.1 324.25Z" fill="white"/>
</mask>
<g mask="url(#mask4_126_8486)">
<path d="M212 336.25C212.7 336.35 213.6 336.45 214.8 336.35C215 336.35 215.1 336.35 215.3 336.25C220 337.55 224.9 338.05 229.6 339.45L229.9 340.55C228.7 340.65 227.6 340.85 226.7 341.15C223.2 340.45 219.7 339.95 216.3 338.95C214.8 338.55 213.6 338.15 212.2 337.05L212 336.25Z" fill="#FC4F62"/>
</g>
<mask id="mask5_126_8486" style="mask-type:luminance" maskUnits="userSpaceOnUse" x="188" y="318" width="42" height="29">
<path d="M188.1 324.25C190.9 324.05 192.7 323.25 194.5 322.45C196.3 321.65 198.1 320.85 201 320.65C203.8 320.45 204.9 320.95 205.9 321.55C206.9 322.05 207.9 322.65 210.7 322.35C213.5 322.15 215.3 321.35 217.1 320.55C218.9 319.75 220.7 318.95 223.6 318.75L229.9 340.55C227.1 340.75 225.2 341.65 223.4 342.35C221.6 343.15 219.8 343.95 217 344.15C214.2 344.35 213.2 343.85 212.2 343.35C211.2 342.85 210.1 342.25 207.3 342.45C204.5 342.65 202.6 343.55 200.8 344.25C199 345.05 197.2 345.85 194.4 346.05L188.1 324.25Z" fill="white"/>
</mask>
<g mask="url(#mask5_126_8486)">
<path d="M209.4 327.55C210.9 326.55 212.6 325.85 213.9 324.65C215.2 323.55 215.6 322.95 217.7 320.25C218.6 319.85 219.6 319.45 220.8 319.15C219 320.75 217.7 322.85 216.1 324.75C215 325.95 214.2 326.65 213.7 327.05C212.5 327.95 211.2 328.55 209.9 329.35L209.4 327.55ZM224 319.95L224.9 322.95C222.4 324.35 221.1 326.05 219.1 328.65C217.6 329.35 215.9 329.95 213.6 330.25C217.8 327.55 219.6 322.45 224 319.95ZM193.2 341.85C195.7 340.45 197.1 338.65 198.8 336.35C200.4 335.65 202.1 334.95 204.5 334.65C200.2 337.35 198.5 342.45 194.1 345.05L193.2 341.85ZM208 335.55L208.5 337.25C207.5 337.95 206.4 338.45 205.4 339.15C204.7 339.65 204.1 340.15 203.9 340.35C202.7 341.45 201.7 342.75 200.4 344.55C199.6 344.95 198.7 345.25 197.7 345.55C199.7 343.45 201.2 340.85 203.3 338.85C203.8 338.35 204.5 337.85 204.8 337.65C205.8 336.85 206.9 336.25 208 335.55Z" fill="white"/>
</g>
<mask id="mask6_126_8486" style="mask-type:luminance" maskUnits="userSpaceOnUse" x="188" y="318" width="42" height="29">
<path d="M188.1 324.25C190.9 324.05 192.7 323.25 194.5 322.45C196.3 321.65 198.1 320.85 201 320.65C203.8 320.45 204.9 320.95 205.9 321.55C206.9 322.05 207.9 322.65 210.7 322.35C213.5 322.15 215.3 321.35 217.1 320.55C218.9 319.75 220.7 318.95 223.6 318.75L229.9 340.55C227.1 340.75 225.2 341.65 223.4 342.35C221.6 343.15 219.8 343.95 217 344.15C214.2 344.35 213.2 343.85 212.2 343.35C211.2 342.85 210.1 342.25 207.3 342.45C204.5 342.65 202.6 343.55 200.8 344.25C199 345.05 197.2 345.85 194.4 346.05L188.1 324.25Z" fill="white"/>
</mask>
<g mask="url(#mask6_126_8486)">
<path d="M210 329.35C211.2 328.55 212.6 327.95 213.8 327.05C214.3 326.65 215.2 325.95 216.2 324.75C217.8 322.95 219.1 320.85 220.9 319.15C221.7 318.95 222.6 318.75 223.7 318.65L224.1 319.95C219.7 322.45 217.9 327.55 213.7 330.25C213.5 330.25 213.4 330.25 213.2 330.25C212 330.35 211.1 330.35 210.4 330.15L210 329.35Z" fill="#FC4F62"/>
</g>
<mask id="mask7_126_8486" style="mask-type:luminance" maskUnits="userSpaceOnUse" x="188" y="318" width="42" height="29">
<path d="M188.1 324.25C190.9 324.05 192.7 323.25 194.5 322.45C196.3 321.65 198.1 320.85 201 320.65C203.8 320.45 204.9 320.95 205.9 321.55C206.9 322.05 207.9 322.65 210.7 322.35C213.5 322.15 215.3 321.35 217.1 320.55C218.9 319.75 220.7 318.95 223.6 318.75L229.9 340.55C227.1 340.75 225.2 341.65 223.4 342.35C221.6 343.15 219.8 343.95 217 344.15C214.2 344.35 213.2 343.85 212.2 343.35C211.2 342.85 210.1 342.25 207.3 342.45C204.5 342.65 202.6 343.55 200.8 344.25C199 345.05 197.2 345.85 194.4 346.05L188.1 324.25Z" fill="white"/>
</mask>
<g mask="url(#mask7_126_8486)">
<path d="M194.2 345.05C198.5 342.45 200.3 337.35 204.6 334.65C204.8 334.65 204.9 334.65 205.1 334.55C206.2 334.45 207.1 334.45 207.8 334.55L208.1 335.45C203.6 338.45 203.6 338.45 203.3 338.65C201.2 340.65 199.8 343.25 197.7 345.35C196.8 345.65 195.8 345.85 194.5 345.95L194.2 345.05Z" fill="#FC4F62"/>
</g>
<mask id="mask8_126_8486" style="mask-type:luminance" maskUnits="userSpaceOnUse" x="188" y="318" width="42" height="29">
<path d="M188.1 324.25C190.9 324.05 192.7 323.25 194.5 322.45C196.3 321.65 198.1 320.85 201 320.65C203.8 320.45 204.9 320.95 205.9 321.55C206.9 322.05 207.9 322.65 210.7 322.35C213.5 322.15 215.3 321.35 217.1 320.55C218.9 319.75 220.7 318.95 223.6 318.75L229.9 340.55C227.1 340.75 225.2 341.65 223.4 342.35C221.6 343.15 219.8 343.95 217 344.15C214.2 344.35 213.2 343.85 212.2 343.35C211.2 342.85 210.1 342.25 207.3 342.45C204.5 342.65 202.6 343.55 200.8 344.25C199 345.05 197.2 345.85 194.4 346.05L188.1 324.25Z" fill="white"/>
</mask>
<g mask="url(#mask8_126_8486)">
<path d="M190.4 332.25C193.2 332.05 195 331.25 196.8 330.45C196.9 330.45 197 330.35 197 330.35C198.7 329.65 200.5 328.85 203.2 328.65C204.3 328.55 205.2 328.55 205.9 328.65L206.2 329.75C200.5 328.85 196 332.85 190.7 333.35L190.4 332.25ZM210.2 330.15C210.9 330.25 211.8 330.35 213 330.25C213.2 330.25 213.3 330.25 213.5 330.25C215.8 329.95 217.5 329.35 219 328.65C219.1 328.55 219.3 328.55 219.4 328.45C221.2 327.65 223 326.85 225.9 326.65L226.2 327.75C223.4 327.95 221.5 328.85 219.7 329.55C217.9 330.35 216.1 331.15 213.3 331.35C212.1 331.45 211.2 331.45 210.5 331.25L210.2 330.15ZM211.6 335.15C212.3 335.25 213.2 335.35 214.4 335.25C217.2 335.05 219 334.25 220.8 333.45C222.6 332.65 224.4 331.85 227.3 331.65L227.6 332.75C224.8 332.95 222.9 333.85 221.1 334.55C221 334.65 220.8 334.65 220.7 334.75C219.2 335.45 217.5 336.05 215.2 336.35C215 336.35 214.9 336.35 214.7 336.45C213.5 336.55 212.6 336.55 211.9 336.35L211.6 335.15ZM191.9 337.15C194.7 336.95 196.5 336.15 198.3 335.35C200.1 334.55 201.9 333.75 204.8 333.55C205.9 333.45 206.8 333.45 207.5 333.55L207.8 334.65C207.1 334.55 206.3 334.55 205.1 334.65C204.9 334.65 204.7 334.65 204.6 334.75C202.2 335.05 200.5 335.75 198.9 336.45C198.8 336.45 198.7 336.55 198.7 336.55C196.9 337.35 195.1 338.15 192.3 338.35L191.9 337.15Z" fill="white"/>
</g>
<mask id="mask9_126_8486" style="mask-type:luminance" maskUnits="userSpaceOnUse" x="188" y="318" width="42" height="29">
<path d="M188.1 324.25C190.9 324.05 192.7 323.25 194.5 322.45C196.3 321.65 198.1 320.85 201 320.65C203.8 320.45 204.9 320.95 205.9 321.55C206.9 322.05 207.9 322.65 210.7 322.35C213.5 322.15 215.3 321.35 217.1 320.55C218.9 319.75 220.7 318.95 223.6 318.75L229.9 340.55C227.1 340.75 225.2 341.65 223.4 342.35C221.6 343.15 219.8 343.95 217 344.15C214.2 344.35 213.2 343.85 212.2 343.35C211.2 342.85 210.1 342.25 207.3 342.45C204.5 342.65 202.6 343.55 200.8 344.25C199 345.05 197.2 345.85 194.4 346.05L188.1 324.25Z" fill="white"/>
</mask>
<g mask="url(#mask9_126_8486)">
<path d="M207 321.95C207.3 322.05 207.6 322.15 207.9 322.25L209.4 327.55L209.9 329.35L210.1 330.15L210.4 331.25C210 331.15 209.7 331.05 209.5 330.95C208.7 327.95 207.8 324.95 207 321.95ZM206 328.55L205.7 327.35L205.3 325.85L203.8 320.55C204.2 320.65 204.5 320.65 204.8 320.75L207.4 329.75C207.1 329.65 206.8 329.55 206.4 329.55L206 328.55ZM210.7 334.85C211 334.95 211.3 335.05 211.6 335.15L211.9 336.25L212.1 337.05L212.6 338.85L214.1 344.05C213.7 343.95 213.4 343.85 213.2 343.75L210.7 334.85ZM208.5 337.25L208 335.55L207.7 334.65L207.4 333.55C207.8 333.65 208.1 333.65 208.4 333.75L211 342.65C210.7 342.55 210.4 342.45 210 342.45L208.5 337.25Z" fill="white"/>
</g>
<mask id="mask10_126_8486" style="mask-type:luminance" maskUnits="userSpaceOnUse" x="188" y="318" width="42" height="29">
<path d="M188.1 324.25C190.9 324.05 192.7 323.25 194.5 322.45C196.3 321.65 198.1 320.85 201 320.65C203.8 320.45 204.9 320.95 205.9 321.55C206.9 322.05 207.9 322.65 210.7 322.35C213.5 322.15 215.3 321.35 217.1 320.55C218.9 319.75 220.7 318.95 223.6 318.75L229.9 340.55C227.1 340.75 225.2 341.65 223.4 342.35C221.6 343.15 219.8 343.95 217 344.15C214.2 344.35 213.2 343.85 212.2 343.35C211.2 342.85 210.1 342.25 207.3 342.45C204.5 342.65 202.6 343.55 200.8 344.25C199 345.05 197.2 345.85 194.4 346.05L188.1 324.25Z" fill="white"/>
</mask>
<g mask="url(#mask10_126_8486)">
<path d="M204.7 320.85C205.2 321.05 205.6 321.25 205.9 321.45C206.2 321.65 206.6 321.85 207 321.95C207.9 324.95 208.7 327.95 209.6 330.95C209.2 330.75 208.9 330.65 208.5 330.45C208.1 330.25 207.7 330.05 207.3 329.85L204.7 320.85ZM208.4 333.85C208.9 334.05 209.3 334.25 209.6 334.45C209.9 334.65 210.3 334.85 210.7 334.95L213.3 343.85C212.9 343.65 212.6 343.55 212.2 343.35C211.8 343.15 211.4 342.95 211 342.75L208.4 333.85Z" fill="#FC4F62"/>
</g>
<path d="M190.7 333.25C196 332.75 200.6 328.75 206.2 329.65C206.6 329.75 206.9 329.75 207.2 329.85C207.7 330.05 208.1 330.25 208.4 330.45C208.7 330.65 209.1 330.85 209.5 330.95C209.8 331.05 210.1 331.15 210.4 331.25C211.1 331.35 212 331.45 213.2 331.35C216 331.15 217.8 330.35 219.6 329.55C221.4 328.75 223.2 327.95 226.1 327.75L227.2 331.65C224.4 331.85 222.5 332.75 220.7 333.45C218.9 334.25 217.1 335.05 214.3 335.25C213.1 335.35 212.2 335.35 211.5 335.15C211.1 335.05 210.8 334.95 210.6 334.85C210.2 334.65 209.9 334.55 209.5 334.35C209.1 334.15 208.7 333.95 208.3 333.75C208 333.65 207.7 333.55 207.3 333.55C206.6 333.45 205.8 333.45 204.6 333.55C201.8 333.75 199.9 334.65 198.1 335.35C196.3 336.15 194.5 336.95 191.7 337.15L190.7 333.25Z" fill="#FC4F62"/>
</g>
<path d="M199.4 364.45C199 364.55 198.5 364.35 198.4 363.85L186.6 322.45L188.2 322.05L200 363.45C200.1 363.85 199.9 364.35 199.4 364.45Z" fill="#557E8A"/>
<path d="M188.7 321.05C188.5 320.15 187.5 319.65 186.7 319.95C185.8 320.15 185.3 321.15 185.6 321.95C185.8 322.85 186.8 323.35 187.6 323.05C188.5 322.85 189 321.95 188.7 321.05Z" fill="#557E8A"/>
</g>
<path d="M303.5 425.05C296.5 430.05 289.2 434.65 281.6 438.75C266.2 447.05 249.7 453.55 232.2 457.75C231.2 458.05 230.1 458.25 229.1 458.45C229 458.25 228.8 457.95 228.6 457.65C227.6 455.65 226.3 452.75 224.8 449.05C224.4 448.05 224 447.05 223.5 445.95C223.2 445.25 223 444.55 222.7 443.85C222.3 442.65 221.8 441.45 221.3 440.25C221 439.55 220.7 438.75 220.4 437.95C220.4 437.85 220.3 437.75 220.3 437.55C219.9 436.45 219.5 435.35 219.1 434.25C218.5 432.65 217.9 430.95 217.2 429.25C216.4 427.05 215.6 424.75 214.7 422.35C212.8 417.05 210.9 411.55 209 406.05C200.5 381.55 192.8 357.95 193 357.25C193 357.25 224.2 345.75 245.7 338.45C250.6 336.75 254.9 335.35 258.4 334.35C262.5 333.05 265.2 332.35 265.6 332.65C265.9 332.85 267.2 335.45 269.1 339.75C270.2 342.25 271.5 345.35 273 348.75C276.8 357.75 281.6 369.55 286.5 381.65C286.9 382.55 287.3 383.55 287.6 384.45C287.6 384.55 287.7 384.65 287.7 384.65C293.5 399.15 299.1 413.65 302.8 423.45C303.1 423.95 303.3 424.55 303.5 425.05Z" fill="#F8F8F8"/>
<path d="M269.2 339.65L260.8 343.35L250.8 347.75L209.8 365.75L218.3 400.65L218.7 402.25V402.35L219.2 404.55L222.3 417.35L224.5 426.25L225.2 429.15L226.5 434.45L226.7 435.35L227.7 439.35L228.2 441.45L228.4 442.05L229.7 447.25L232 456.65L232.3 457.75C231.3 458.05 230.2 458.25 229.2 458.45C229.1 458.25 228.9 457.95 228.7 457.65C227.7 455.65 226.4 452.75 224.9 449.05C224.5 448.05 224.1 447.05 223.6 445.95C223.3 445.25 223.1 444.55 222.8 443.85C222.4 442.65 221.9 441.45 221.4 440.25C221.1 439.55 220.8 438.75 220.5 437.95C220.5 437.85 220.4 437.75 220.4 437.55C220 436.45 219.6 435.35 219.2 434.25C218.6 432.65 218 430.95 217.3 429.25C216.5 427.05 215.7 424.75 214.8 422.35C212.9 417.05 211 411.55 209.1 406.05C200.6 381.55 192.9 357.95 193.1 357.25C193.1 357.25 224.3 345.75 245.8 338.45C250.7 336.75 255 335.35 258.5 334.35C262.6 333.05 265.3 332.35 265.7 332.65C266 332.75 267.3 335.35 269.2 339.65Z" fill="white"/>
<path d="M242.2 386.65C237.9 388.75 235.4 393.75 235.7 398.45C236.1 403.15 239.2 407.55 243.5 409.65C246.2 410.95 249.5 411.45 252.2 410.15C254 409.25 255.4 407.65 256.5 405.85C259.1 401.55 260.8 393.45 257.2 389.15C254.2 385.45 246.2 384.65 242.2 386.65Z" fill="#E6F2FF"/>
<path d="M273.5 421.15L258.3 428.45L255.9 432.85C253.8 435.75 223.3 451.15 221.8 449.55C221.4 449.15 221 448.55 220.6 448.05C220 447.25 219.5 446.45 219.2 445.85C219 445.45 218.8 445.15 218.8 445.15C218.8 445.15 217.7 444.55 216.5 443.65C215.8 443.15 215 442.55 214.5 441.95C213.9 441.35 213.5 440.65 213.6 440.05C213.7 439.45 215.2 437.95 217.3 435.95C222.4 431.25 231.1 424.15 230.3 423.95C229.2 423.65 206.9 433.85 206.9 433.85C206.9 433.85 206.2 433.55 205.5 432.85C205.1 432.45 204.6 431.85 204.3 431.05C203.5 428.95 233.5 409.85 233.5 409.85C227.9 409.05 222.6 406.25 218.8 402.05L218.7 401.95C218.4 401.55 218.1 401.05 218.2 400.65C218.3 400.45 218.5 400.25 218.6 400.05C220.1 398.75 222.3 398.55 224.3 398.85C226.3 399.15 228.2 400.05 230.1 400.55C233.8 401.65 237.7 401.25 241.5 400.85C248 400.25 255.4 409.45 255.4 409.45C255.4 409.45 263.8 406.05 264.4 406.45C265.6 407.25 266.7 408.15 267.7 409.15C269.4 410.85 270.6 412.85 271.5 414.65C271.6 414.85 271.7 415.15 271.8 415.35C273.1 418.65 273.5 421.15 273.5 421.15Z" fill="#FFA07F"/>
<path d="M216.5 443.75C217 443.45 217.6 443.05 218.1 442.65C221.3 440.45 223.9 438.15 225.7 436.35C227.4 434.65 228.4 433.45 228.5 433.35C228.3 433.45 227 434.15 224.9 435.35C222.7 436.65 219.8 438.45 216.6 440.55C215.8 441.05 215.1 441.55 214.4 442.05C215 442.65 215.8 443.25 216.5 443.75Z" fill="#FF7D6F"/>
<path d="M220.6 448.05C225.7 444.65 229.2 441.05 229.5 440.85C229.2 440.95 224.5 442.65 219.2 445.85C219.5 446.35 220 447.25 220.6 448.05Z" fill="#FF7D6F"/>
<path d="M269.4 434.05C269.4 434.05 357.3 410.55 360.6 387.65C364 364.75 289.8 285.35 275.3 275.25C260.8 265.15 247.5 274.25 247.5 274.25L272.5 328.95C284 343.95 295.5 359.05 307 374.05C290.4 382.15 273.9 390.25 257.3 398.35L267.3 427.85L269.4 434.05Z" fill="#007AFF"/>
<path d="M257.3 398.25L309.7 374.35C309.7 374.35 270.3 325.55 266.1 315.95C266.1 315.95 269.3 328.95 282.2 346.65C295.1 364.35 302.4 372.65 302.4 372.65L257.3 398.25Z" fill="#0371D6"/>
<path d="M140.55 138.5C149.828 138.5 157.35 146.022 157.351 155.3C157.351 164.578 149.828 172.101 140.55 172.101C131.272 172.1 123.75 164.578 123.75 155.3C123.75 146.022 131.272 138.5 140.55 138.5Z" fill="#262626" stroke="#007AFF" stroke-width="1.5"/>
<path d="M147.245 150.75C147.245 146.915 143.995 143.795 140.095 144.055C136.65 144.25 133.92 147.11 133.79 150.555C133.725 152.05 134.18 153.48 135.025 154.65C136.13 156.21 136.715 158.16 136.715 160.11V160.175H144.385V160.11C144.385 158.095 145.035 156.145 146.14 154.52C146.855 153.415 147.245 152.115 147.245 150.75Z" fill="#FFBC00"/>
<path d="M140.16 153.87C139.965 153.805 139.64 153.61 139.51 153.545C139.9 153.155 140.095 152.505 139.835 151.985C139.51 151.075 138.145 150.815 137.82 151.92C137.69 152.505 137.885 153.09 138.34 153.545C138.08 153.61 137.82 153.545 137.56 153.415C136.91 153.09 136.65 152.44 136.52 151.79C136.455 151.465 135.935 151.4 135.935 151.79C136 153.025 136.78 154.26 138.145 154.26C138.405 154.26 138.6 154.195 138.86 154.065C139.055 154.195 139.315 154.325 139.575 154.39V160.76C139.575 161.15 140.16 161.15 140.16 160.76C140.16 160.76 140.355 154 140.16 153.87ZM139.25 152.635C139.25 152.895 139.12 153.09 138.99 153.22C138.86 153.09 138.795 153.025 138.665 152.895C138.535 152.7 138.34 152.31 138.47 152.115C138.795 151.335 139.315 152.245 139.25 152.635Z" fill="white"/>
<path d="M140.875 160.76C140.875 161.15 141.46 161.15 141.46 160.76V154.325C141.72 154.26 141.915 154.13 142.175 154C142.37 154.13 142.63 154.13 142.89 154.195C144.255 154.195 145.035 153.025 145.1 151.725C145.1 151.335 144.58 151.4 144.515 151.725C144.45 152.375 144.125 153.09 143.475 153.35C143.215 153.48 142.955 153.48 142.695 153.48C143.085 153.025 143.345 152.44 143.215 151.855C142.955 150.75 141.525 151.075 141.2 151.92C141.005 152.505 141.135 153.09 141.525 153.48C141.33 153.61 141.005 153.74 140.875 153.805C140.745 154 140.875 160.76 140.875 160.76ZM142.565 152.05C142.695 152.245 142.5 152.635 142.37 152.83C142.305 152.96 142.175 153.09 142.045 153.155C141.915 153.025 141.785 152.83 141.785 152.57C141.72 152.245 142.24 151.335 142.565 152.05Z" fill="white"/>
<path d="M145.88 160.175H135.22V162.775H145.88V160.175Z" fill="white"/>
<path d="M142.76 166.61H138.34C137.495 166.61 136.845 165.96 136.845 165.115V161.475H144.255V165.115C144.255 165.96 143.54 166.61 142.76 166.61Z" fill="white"/>
<path d="M147.245 150.75C147.245 146.915 143.995 143.795 140.095 144.055C136.65 144.25 133.92 147.11 133.79 150.555C133.79 150.945 133.79 151.335 133.855 151.725C134.31 148.605 136.91 146.135 140.095 145.94C140.485 145.94 140.81 145.94 141.135 145.94C141.07 146.135 141.005 146.33 141.005 146.525C141.005 146.98 141.265 147.435 141.59 147.825C142.045 148.345 142.565 148.735 143.15 148.995C143.54 149.19 143.995 149.255 144.385 149.19C144.905 149.125 145.425 148.67 145.62 148.215C146.465 149.19 146.985 150.36 147.18 151.66C147.245 151.4 147.245 151.075 147.245 150.75Z" fill="#FFD75D"/>
<path d="M345.589 108.175C345.637 96.9905 336.609 87.885 325.425 87.8369C314.241 87.7888 305.135 96.8164 305.087 108.001C305.039 119.185 314.067 128.29 325.251 128.339C336.435 128.387 345.541 119.359 345.589 108.175Z" fill="white"/>
<path d="M346.589 105.175C346.637 93.9905 337.609 84.885 326.425 84.8369C315.241 84.7888 306.135 93.8164 306.087 105.001C306.039 116.185 315.067 125.29 326.251 125.339C337.435 125.387 346.541 116.359 346.589 105.175Z" fill="#00254C"/>
<path d="M340.408 105.069C340.408 112.827 334.121 119.114 326.363 119.114C318.606 119.114 312.318 112.827 312.318 105.069C312.318 97.312 318.606 91.0244 326.363 91.0244C334.121 91.0244 340.408 97.312 340.408 105.069Z" fill="#D53F36"/>
<path d="M337.959 105.069C337.959 111.439 332.733 116.665 326.363 116.665C319.994 116.665 314.768 111.439 314.768 105.069C314.768 98.7001 319.994 93.4741 326.363 93.4741C332.733 93.4741 337.959 98.6185 337.959 105.069Z" fill="white"/>
<path d="M335.345 105.069C335.345 110.05 331.344 114.051 326.363 114.051C321.382 114.051 317.381 110.05 317.381 105.069C317.381 100.088 321.382 96.0869 326.363 96.0869C331.344 96.0869 335.345 100.088 335.345 105.069Z" fill="#D53F36"/>
<path d="M332.732 105.069C332.732 108.581 329.874 111.439 326.363 111.439C322.852 111.439 319.994 108.581 319.994 105.069C319.994 101.558 322.852 98.7002 326.363 98.7002C329.874 98.7002 332.732 101.558 332.732 105.069Z" fill="white"/>
<path d="M330.201 105.069C330.201 107.192 328.486 108.907 326.363 108.907C324.24 108.907 322.525 107.192 322.525 105.069C322.525 102.946 324.24 101.231 326.363 101.231C328.486 101.231 330.201 102.946 330.201 105.069Z" fill="#D53F36"/>
<path d="M331.426 110.132V115.195L335.754 119.523V114.46L331.426 110.132Z" fill="#FFBC00"/>
<path d="M331.426 110.132H336.489L340.816 114.46H335.754L331.426 110.132Z" fill="#FFBC00"/>
<path d="M336.897 116.746C336.57 116.746 336.325 116.665 336.08 116.42L325.057 105.478C324.567 104.988 324.567 104.334 325.057 103.845C325.465 103.355 326.2 103.355 326.69 103.845L337.713 114.868C338.203 115.276 338.203 116.011 337.713 116.501C337.468 116.665 337.223 116.746 336.897 116.746Z" fill="#131313"/>
<path d="M7.7998 202.5C18.873 202.5 27.8495 211.477 27.8496 222.55C27.8496 233.623 18.8731 242.6 7.7998 242.6C-3.27342 242.6 -12.25 233.623 -12.25 222.55C-12.2499 211.477 -3.27335 202.5 7.7998 202.5Z" fill="#262626" stroke="#007AFF" stroke-width="1.5"/>
<path d="M17.8 209.25H-2.29999V235.75H12.2L17.8 230.35V209.25Z" fill="#B8DAFF"/>
<path d="M12.2 235.75L17.8 230.35H12.2V235.75Z" fill="#007AFF"/>
<path d="M14.6 213.05H0.900024V214.65H14.6V213.05Z" fill="#007AFF"/>
<path d="M14.6 216.55H0.900024V218.15H14.6V216.55Z" fill="#007AFF"/>
<path d="M14.6 219.95H0.900024V221.55H14.6V219.95Z" fill="#007AFF"/>
<path d="M14.6 223.35H0.900024V224.95H14.6V223.35Z" fill="#007AFF"/>
<path d="M14.6 226.75H0.900024V228.35H14.6V226.75Z" fill="#007AFF"/>
<path d="M104.4 423.351C104.4 436.451 93.8 446.951 80.8 446.951C67.7 446.951 57.2 436.351 57.2 423.351C57.2 410.251 67.8 399.751 80.8 399.751C93.9 399.651 104.4 410.251 104.4 423.351Z" fill="white"/>
<path d="M102.2 424.85C102.2 437.95 91.6 448.45 78.6 448.45C65.5 448.45 55 437.85 55 424.85C55 411.75 65.6 401.25 78.6 401.25C91.6 401.25 102.2 411.75 102.2 424.85Z" fill="#00254C"/>
<path d="M71.8 426.051C69.2 425.151 67.4 423.551 66.5 421.451C64.8 417.751 66.3 413.651 66.3 413.451L66.7 412.351L72.6 415.751L71.7 417.451L67.7 415.151C67.4 416.451 67.2 418.651 68.1 420.551C68.9 422.251 70.3 423.451 72.4 424.151L71.8 426.051Z" fill="#EC8B1E"/>
<path d="M84.7 425.851C87.3 425.151 89.3 423.751 90.4 421.651C92.4 418.051 91.3 413.851 91.2 413.651L90.9 412.551L84.7 415.451L85.5 417.151L89.6 415.151C89.8 416.451 89.8 418.651 88.7 420.551C87.8 422.151 86.3 423.251 84.1 423.851L84.7 425.851Z" fill="#FFBC00"/>
<path d="M80.4999 436.151C79.1999 436.851 77.9999 436.851 77.1999 436.751C76.4999 436.651 76.0999 436.351 76.0999 436.351C77.3999 434.851 77.4999 425.751 77.4999 425.751L80.8999 425.451C80.6999 426.051 80.6999 426.751 80.5999 427.451C80.3999 430.851 80.4999 436.151 80.4999 436.151Z" fill="#FFBC00"/>
<path d="M80.4999 427.451C78.8999 429.651 76.9999 433.951 77.0999 436.751C76.3999 436.651 75.9999 436.351 75.9999 436.351C77.2999 434.851 77.3999 425.751 77.3999 425.751L80.7999 425.451C80.5999 426.051 80.5999 426.751 80.4999 427.451Z" fill="#EC8B1E"/>
<path d="M85.6 439.051C78.1 443.351 71.2 438.451 71.2 438.451C71.4 438.251 71.6 438.051 71.9 437.951C78.2 432.951 83.1 436.551 84.9 438.251C85.4 438.751 85.6 439.051 85.6 439.051Z" fill="#FFBC00"/>
<path d="M85.6 439.051C78.1 443.351 71.2 438.451 71.2 438.451C71.4 438.251 71.6 438.051 71.9 437.951C73.9 439.051 76.1 439.751 78.6 439.851C80.8 439.851 83 439.351 84.9 438.351C85.4 438.751 85.6 439.051 85.6 439.051Z" fill="#EC8B1E"/>
<path d="M80.9999 438.851C81.5999 438.751 82.0999 438.451 82.2999 438.051C82.4999 437.651 82.1999 437.151 81.8999 436.851C81.1999 436.351 79.9999 436.251 79.0999 436.151C77.9999 436.051 76.7999 436.051 75.7999 436.251C74.0999 436.551 74.0999 437.751 75.6999 438.451C77.2999 439.151 79.1999 439.251 80.9999 438.851Z" fill="#FFCC5E"/>
<path d="M87.7 425.251C87.5 426.151 84 428.951 80.1 429.651C79.6 429.751 79.2 429.751 78.7 429.751C78.6 429.751 78.6 429.751 78.5 429.751C74 429.751 70.6 427.151 70.2 425.351C69.8 423.551 72.2 411.351 72.2 411.351C76.7 410.651 86.3 410.951 86.3 410.951C86.3 410.951 86.4 411.351 86.4 412.051C86.5 413.051 86.7 414.751 86.9 416.551C87.4 420.251 87.8 424.651 87.7 425.251Z" fill="#FFBC00"/>
<path d="M73 413.151C73 413.151 68.3 425.051 78.7 429.651C78.6 429.651 78.6 429.651 78.5 429.651C74 429.651 70.6 427.051 70.2 425.251C69.8 423.451 72.2 411.251 72.2 411.251C76.7 410.551 86.3 410.851 86.3 410.851C86.3 410.851 86.4 411.251 86.4 411.951C84.3 414.251 79.7 417.251 73 413.151Z" fill="#EC8B1E"/>
<path d="M72.2 411.351C72.2 411.351 78.4 405.951 86.3 410.951C86.3 410.951 79.2 415.351 72.2 411.351Z" fill="#FFBC00"/>
<path d="M84.6 411.351C84.6 411.351 83.6 411.851 82.1 412.151C80.5 412.451 78.4 412.651 76.2 412.251C75.5 412.051 74.7 411.851 74 411.551C73.9 411.451 78.6 408.351 84.6 411.351Z" fill="#EC8B1E"/>
<path d="M82.1 412.151C80.5 412.451 78.4 412.651 76.2 412.251C77.6 411.751 79.7 411.451 82.1 412.151Z" fill="#D1730C"/>
<path d="M87.7 425.25C87.5 426.15 84 428.95 80.1 429.65C78.9 428.55 78 427.25 77.2 425.75C76.7 424.85 76.3 423.95 76.2 422.95C76 421.15 76.8 419.35 78.1 418.05C79.4 416.85 81.2 416.25 82.9 416.05C84.3 415.95 85.6 416.05 86.9 416.55C87.4 420.25 87.8 424.65 87.7 425.25Z" fill="#FFCC5E"/>
<path d="M25.4001 307.05C26.3001 309.05 26.8001 311.05 26.8001 313.15C26.9001 319.15 23.6001 324.85 17.8001 327.55C12.0001 330.25 5.50005 328.95 1.00005 324.95C-0.499949 323.55 -1.79995 321.85 -2.69995 319.95C-3.09995 319.05 -3.39995 318.05 -3.69995 317.15C-5.39995 310.15 -1.99995 302.65 4.90005 299.45C11.7001 296.35 19.7001 298.65 23.9001 304.45C24.5001 305.25 25.0001 306.05 25.4001 307.05Z" fill="#131313"/>
<path d="M23.8001 305.25C24.7001 307.25 25.2 309.25 25.2 311.35C25.3 317.35 22 323.05 16.2 325.75C10.4 328.35 3.90005 327.15 -0.599948 323.15C-2.09995 321.75 -3.39995 320.05 -4.29995 318.15C-4.69995 317.25 -4.99995 316.25 -5.29995 315.35C-6.99995 308.35 -3.59995 300.85 3.30005 297.65C10.1001 294.55 18.1001 296.85 22.3001 302.65C22.8001 303.55 23.3001 304.35 23.8001 305.25Z" fill="#D53F36"/>
<path d="M22.3001 302.75L-5.19995 315.35C-6.89995 308.35 -3.49995 300.85 3.40005 297.65C10.1001 294.55 18.1001 296.85 22.3001 302.75Z" fill="#131313"/>
<path d="M25.2 311.35C25.3 317.35 22 323.05 16.2 325.75C10.4 328.35 3.90002 327.15 -0.599976 323.15L25.2 311.35Z" fill="#FDDA5F"/>
<path d="M241.9 127.471C241.1 129.371 240 130.971 238.6 132.271C234.5 136.171 228.4 137.471 222.9 135.171C217.4 132.871 214.1 127.571 214 121.871C214 119.971 214.4 117.971 215.1 116.071C215.5 115.171 215.9 114.371 216.4 113.571C220.2 107.871 227.6 105.571 234.1 108.271C240.6 111.071 244.1 117.971 242.7 124.671C242.5 125.771 242.2 126.571 241.9 127.471Z" fill="#131313"/>
<path d="M241.4 125.871C238.5 131.671 232.2 134.671 226.2 133.671C225.6 133.571 225.1 133.471 224.5 133.271C223.6 133.071 222.7 132.671 221.9 132.271C220.1 131.371 218.5 130.071 217.3 128.671C213.7 124.371 212.8 118.171 215.5 112.771C218.2 107.471 223.7 104.471 229.3 104.771C231.2 104.871 233.2 105.371 235 106.271C235.9 106.671 236.6 107.171 237.4 107.771C238.1 108.371 238.8 108.971 239.4 109.571C243.2 113.971 244.2 120.371 241.4 125.871Z" fill="white"/>
<path d="M241.4 125.87C238.5 131.67 232.2 134.67 226.2 133.67L238.6 109.07C238.9 109.27 239.1 109.47 239.3 109.67C243.2 113.97 244.2 120.37 241.4 125.87Z" fill="#D53F36"/>
<path d="M217.3 128.671C213.7 124.371 212.8 118.171 215.5 112.771C218.2 107.471 223.7 104.471 229.3 104.771L217.3 128.671Z" fill="#007AFF"/>
<path d="M379.735 290.69C379.435 292.69 378.735 294.59 377.635 296.19C374.635 300.99 368.935 303.79 363.035 302.79C357.135 301.89 352.535 297.49 351.135 291.99C350.635 290.09 350.535 288.09 350.835 286.09C350.935 285.19 351.235 284.19 351.535 283.39C353.835 276.89 360.535 272.79 367.535 273.89C374.535 274.99 379.635 280.99 379.835 287.79C379.935 288.89 379.935 289.79 379.735 290.69Z" fill="#131313"/>
<path d="M371.334 298.79C370.634 299.19 369.935 299.59 369.135 299.89C368.335 300.19 367.535 300.49 366.735 300.59C366.235 300.69 365.834 300.79 365.334 300.79C363.634 300.99 361.934 300.89 360.334 300.49C356.934 299.69 353.934 297.69 351.834 294.89C351.334 294.19 350.934 293.49 350.534 292.79C350.334 292.49 350.234 292.09 350.034 291.79C349.834 291.39 349.735 290.99 349.635 290.49C349.435 289.79 349.235 289.09 349.135 288.39C348.635 284.59 349.535 280.89 351.735 277.89C352.735 276.49 353.934 275.29 355.334 274.29C355.534 274.09 355.734 273.99 356.034 273.89C356.734 273.49 357.435 273.09 358.235 272.79C359.035 272.49 359.835 272.19 360.635 272.09C366.535 270.79 372.634 273.29 375.934 278.29C376.234 278.69 376.435 279.19 376.735 279.69C376.935 280.09 377.134 280.49 377.334 280.89C377.534 281.39 377.734 281.99 377.934 282.49C378.134 283.09 378.234 283.69 378.334 284.29C378.934 289.99 376.334 295.69 371.334 298.79Z" fill="#007AFF"/>
<path d="M365.434 300.79C363.734 300.99 362.034 300.89 360.434 300.49L356.634 290.49L355.034 286.19L351.834 277.79C352.834 276.39 354.034 275.19 355.434 274.19L359.334 284.49L360.934 288.79L365.434 300.79Z" fill="#FDDA5F"/>
<path d="M377.834 282.491L360.934 288.891L356.634 290.491L350.634 292.791C350.434 292.491 350.334 292.091 350.134 291.791C349.934 291.391 349.834 290.991 349.734 290.491C349.534 289.791 349.334 289.091 349.234 288.391L354.934 286.191L359.234 284.591L375.934 278.291C376.234 278.691 376.434 279.191 376.734 279.691C376.934 280.091 377.134 280.491 377.334 280.891C377.434 281.391 377.634 281.891 377.834 282.491Z" fill="#FDDA5F"/>
<path d="M253 228.823C253 228.823 260.7 227.923 273.1 217.823C271.5 213.423 270.8 208.723 271.2 203.923C272.7 182.623 293.7 166.823 318.2 168.523C342.6 170.223 361.3 188.823 359.8 210.123C358.3 231.423 337.3 247.223 312.8 245.523C301.1 244.723 290.7 240.023 283.2 233.023C275.8 234.423 265.3 234.523 253 228.823Z" fill="white"/>
<path d="M253.4 227.123C253.4 227.123 260.9 225.123 271.6 213.323C269.4 209.223 268 204.723 267.6 199.923C265.9 178.723 284.3 159.823 308.7 157.923C333.1 155.923 354.3 171.523 356 192.823C357.7 214.023 339.3 232.923 314.9 234.823C303.2 235.723 292.2 232.623 283.8 226.823C276.8 229.323 266.4 231.023 253.4 227.123Z" fill="#007AFF"/>
<path d="M343.85 182.07C344.071 182.905 344.347 184.139 344.68 185.773C344.996 187.344 345.262 188.54 345.479 189.36C345.536 189.576 345.67 190.021 345.881 190.693C345.935 190.96 345.895 191.186 345.762 191.37C345.625 191.539 345.44 191.654 345.208 191.715C344.96 191.781 344.72 191.778 344.486 191.707C344.252 191.637 344.085 191.507 343.986 191.318C343.465 190.099 342.971 188.607 342.505 186.844L341.572 183.218C341.42 182.646 341.367 182.163 341.413 181.771C341.469 181.359 341.745 181.087 342.24 180.956C342.658 180.846 343.004 180.903 343.278 181.129C343.549 181.338 343.74 181.652 343.85 182.07ZM345.411 192.952C346.463 192.674 347.093 192.93 347.301 193.719C347.408 194.121 347.374 194.527 347.201 194.937C347.04 195.327 346.765 195.573 346.379 195.675C345.915 195.798 345.499 195.759 345.131 195.558C344.76 195.342 344.523 195.041 344.421 194.654C344.331 194.314 344.373 193.971 344.547 193.628C344.736 193.28 345.024 193.055 345.411 192.952Z" fill="white"/>
<path d="M341.289 189.176C341.47 189.36 341.655 189.65 341.843 190.047C342.026 190.429 342.161 190.782 342.247 191.107C342.357 191.525 342.433 192.001 342.476 192.536C342.518 193.071 342.537 193.488 342.533 193.787C341.981 196.018 340.661 197.41 338.572 197.962C337.799 198.166 336.943 198.119 336.003 197.822C335.064 197.524 334.352 197.083 333.867 196.5C333.101 195.295 332.67 194.507 332.572 194.136C332.408 193.517 332.366 192.825 332.445 192.06C332.539 191.29 332.728 190.595 333.01 189.974C333.195 189.544 333.595 189.116 334.21 188.689C334.821 188.246 335.405 187.951 335.962 187.804C337.045 187.517 338.013 187.485 338.865 187.706C339.73 187.908 340.538 188.398 341.289 189.176ZM340.258 193.445C340.295 193.27 340.196 192.741 339.963 191.86C339.845 191.411 339.643 190.993 339.358 190.605C339.089 190.212 338.759 189.902 338.368 189.675C338.329 189.652 338.232 189.628 338.076 189.603C337.916 189.563 337.705 189.544 337.441 189.548C337.188 189.532 336.907 189.564 336.598 189.646C335.732 189.875 335.189 190.391 334.971 191.193C334.753 191.996 334.76 192.838 334.994 193.719C335.03 193.859 335.152 194.133 335.36 194.541C335.567 194.95 335.71 195.21 335.789 195.321C335.97 195.505 336.285 195.695 336.734 195.891C337.194 196.067 337.649 196.096 338.098 195.977C338.794 195.793 339.3 195.486 339.616 195.054C339.944 194.604 340.158 194.067 340.258 193.445Z" fill="white"/>
<path d="M325.26 201.009C325.091 200.805 324.965 200.549 324.883 200.24C324.806 199.946 324.906 199.448 325.183 198.745C324.375 198.694 323.671 198.409 323.07 197.889C322.485 197.365 322.08 196.678 321.855 195.827C321.708 195.27 321.706 194.733 321.851 194.214C321.991 193.681 322.238 193.144 322.592 192.604C323.193 191.684 324.189 191.04 325.581 190.672C326.138 190.524 326.859 190.466 327.745 190.497C328.498 189.404 329.246 188.759 329.989 188.563C330.453 188.441 330.81 188.445 331.06 188.578C331.322 188.691 331.51 188.964 331.624 189.397C331.669 189.567 331.643 189.748 331.544 189.939C331.457 190.111 331.313 190.224 331.112 190.277L330.271 190.475C329.745 190.614 329.392 190.814 329.214 191.077C329.601 191.355 329.962 191.748 330.295 192.256C330.643 192.759 330.911 193.367 331.099 194.079C331.349 195.022 330.932 196.076 329.849 197.239C329.159 197.885 328.283 198.356 327.22 198.654C327.129 198.81 327.051 198.955 326.987 199.088C326.934 199.201 326.916 199.289 326.932 199.351C326.977 199.521 327.159 199.613 327.477 199.628C327.796 199.644 328.263 199.595 328.878 199.482C329.335 199.394 329.864 199.362 330.466 199.385C331.079 199.388 331.575 199.447 331.953 199.563C332.433 199.75 332.795 199.994 333.04 200.293C333.3 200.588 333.497 200.991 333.632 201.502C333.808 202.167 333.646 202.806 333.146 203.418C332.665 204.041 332.043 204.57 331.281 205.003C330.518 205.436 329.828 205.735 329.209 205.898C328.466 206.094 327.808 206.169 327.233 206.123C326.677 206.087 326.127 205.976 325.581 205.79C325.195 205.644 324.862 205.417 324.582 205.11C324.302 204.804 324.111 204.457 324.009 204.07C323.927 203.761 324.049 203.282 324.374 202.633C324.715 201.981 325.083 201.494 325.478 201.175C325.419 201.141 325.347 201.085 325.26 201.009ZM326.647 196.77C327.374 196.578 327.934 196.223 328.327 195.705C328.716 195.172 328.818 194.558 328.634 193.861C328.487 193.305 328.208 192.907 327.797 192.668C327.382 192.413 326.881 192.364 326.293 192.519C325.071 192.842 324.346 193.323 324.118 193.963C324.058 194.111 324.028 194.375 324.03 194.756C324.027 195.121 324.05 195.396 324.099 195.581C324.168 195.844 324.333 196.091 324.592 196.32C324.863 196.53 325.185 196.685 325.559 196.784C325.929 196.869 326.291 196.864 326.647 196.77ZM326.233 203.656C326.303 203.919 326.602 204.08 327.13 204.139C327.678 204.209 328.231 204.171 328.788 204.023C329.407 203.86 330.01 203.576 330.598 203.173C331.206 202.78 331.461 202.398 331.363 202.027C331.22 201.486 330.649 201.264 329.649 201.363C328.548 201.456 327.675 201.504 327.031 201.509C327.026 201.742 326.891 202.075 326.625 202.51C326.455 202.803 326.331 203.026 326.256 203.178C326.2 203.342 326.192 203.501 326.233 203.656Z" fill="white"/>
<path d="M316.024 198.46C316.169 198.505 316.447 198.589 316.86 198.711C317.285 198.814 317.595 198.988 317.793 199.234C317.99 199.48 318.154 199.85 318.285 200.345C318.432 200.902 318.401 201.44 318.19 201.959C317.976 202.463 317.644 202.898 317.195 203.265C316.88 203.514 316.518 203.709 316.108 203.85C315.714 203.987 315.231 204.131 314.659 204.283C314.349 204.364 313.935 204.424 313.415 204.462C312.911 204.496 312.556 204.499 312.35 204.471C311.782 204.323 311.278 204.109 310.84 203.828C310.401 203.546 310.131 203.212 310.029 202.825C309.947 202.516 309.982 202.242 310.134 202.003C310.286 201.764 310.525 201.602 310.849 201.516C311.02 201.471 311.194 201.475 311.373 201.527C311.564 201.559 311.705 201.621 311.795 201.713C312.072 202.07 312.437 202.296 312.893 202.391C313.348 202.486 313.785 202.478 314.202 202.368C315.672 201.979 316.337 201.522 316.198 200.996C316.161 200.857 316.094 200.759 315.996 200.702C315.91 200.626 315.792 200.557 315.644 200.497C315.406 200.411 315.081 200.34 314.669 200.283C314.272 200.223 313.925 200.19 313.626 200.187C312.955 200.215 312.281 200.17 311.604 200.051C310.974 199.92 310.421 199.677 309.947 199.322C309.468 198.952 309.141 198.434 308.965 197.769C308.859 197.367 308.902 196.934 309.093 196.469C309.297 195.985 309.573 195.59 309.922 195.282C310.171 195.101 310.597 194.864 311.199 194.573C311.8 194.281 312.217 194.105 312.449 194.043C312.805 193.949 313.202 193.886 313.64 193.853C314.074 193.804 314.419 193.829 314.677 193.926C315.16 194.063 315.57 194.236 315.906 194.445C316.239 194.639 316.45 194.906 316.54 195.246C316.585 195.416 316.595 195.612 316.571 195.833C316.543 196.04 316.481 196.18 316.385 196.255C316.181 196.425 315.925 196.55 315.616 196.632C315.476 196.669 315.35 196.661 315.237 196.608C315.139 196.551 314.998 196.456 314.814 196.323C314.574 196.105 314.371 195.993 314.204 195.987C314.006 195.99 313.721 196.008 313.349 196.04C312.973 196.056 312.723 196.081 312.599 196.114C312.212 196.216 311.861 196.392 311.547 196.64C311.247 196.885 311.132 197.139 311.202 197.402C311.283 197.711 311.608 197.907 312.176 197.988C312.542 198.057 312.932 198.094 313.347 198.101C313.778 198.102 314.044 198.107 314.145 198.113C314.374 198.102 314.681 198.137 315.066 198.217C315.467 198.293 315.786 198.374 316.024 198.46Z" fill="white"/>
<path d="M305.16 193.364C304.99 193.409 304.858 193.41 304.765 193.369C304.531 193.298 304.322 193.196 304.138 193.063C303.969 192.925 303.842 192.694 303.756 192.369C303.71 192.133 303.711 191.918 303.759 191.723C303.803 191.513 303.899 191.347 304.049 191.225C304.329 190.969 304.724 190.773 305.234 190.638C305.606 190.54 305.929 190.604 306.203 190.829C306.489 191.035 306.684 191.331 306.786 191.718C306.908 192.182 306.912 192.76 306.797 193.452C306.694 194.125 306.556 194.666 306.383 195.076C306.243 195.361 306.072 195.622 305.869 195.857C305.667 196.093 305.473 196.235 305.287 196.284C304.916 196.382 304.669 196.389 304.548 196.306C304.438 196.202 304.344 196.004 304.266 195.71C304.234 195.586 304.345 195.35 304.6 195.001C304.802 194.699 304.921 194.494 304.959 194.385C305.109 194.014 305.2 193.668 305.23 193.345L305.16 193.364Z" fill="white"/>
<path d="M298.304 199.917C298.079 199.944 297.877 199.898 297.697 199.78C297.532 199.658 297.421 199.489 297.364 199.272C297.335 199.164 297.328 199.042 297.342 198.906C297.371 198.766 297.427 198.635 297.511 198.513C297.659 198.259 298.174 198.015 299.056 197.782C299.02 197.146 298.92 196.519 298.757 195.9C298.695 195.668 298.634 195.469 298.574 195.303C298.514 195.137 298.471 195.008 298.447 194.915C298.357 194.574 298.413 194.287 298.615 194.051C298.833 193.811 299.105 193.649 299.43 193.563C299.832 193.456 300.129 193.485 300.321 193.65C300.529 193.81 300.705 194.161 300.848 194.702C301.061 195.506 301.199 196.314 301.265 197.124C301.512 197.059 301.848 196.953 302.273 196.808C302.853 196.621 303.274 196.493 303.537 196.424C303.8 196.354 304.043 196.365 304.265 196.455C304.499 196.526 304.647 196.677 304.708 196.909C304.867 197.512 304.691 197.94 304.178 198.191C303.642 198.481 302.775 198.802 301.577 199.151C301.69 199.767 301.841 200.431 302.029 201.142C302.323 202.256 302.634 203.15 302.961 203.825C303.185 204.295 303.436 204.618 303.714 204.793C304.003 204.948 304.372 204.966 304.82 204.848C305.083 204.778 305.336 204.637 305.577 204.424C305.734 204.267 305.89 204.168 306.045 204.127C306.261 204.07 306.435 204.098 306.564 204.213C306.709 204.324 306.812 204.495 306.874 204.727C306.988 205.16 306.852 205.585 306.466 206.002C306.075 206.403 305.517 206.699 304.79 206.891C304.341 207.01 303.856 207.022 303.335 206.928C302.829 206.83 302.378 206.66 301.983 206.417C301.925 206.383 301.792 206.227 301.587 205.951C301.381 205.674 301.185 205.37 300.998 205.039C300.652 204.353 300.304 203.352 299.957 202.037C299.805 201.465 299.634 200.691 299.442 199.716L298.304 199.917Z" fill="white"/>
<path d="M289.275 205.63C289.119 205.042 289.072 204.426 289.134 203.781C289.191 203.12 289.332 202.495 289.557 201.906C289.782 201.317 290.24 200.766 290.932 200.252C291.619 199.723 292.265 199.379 292.868 199.219C293.487 199.056 294.136 198.975 294.815 198.978C295.509 198.976 296.027 199.12 296.369 199.411C297.154 200.064 297.649 200.777 297.853 201.551C297.964 201.968 297.965 202.348 297.857 202.691C297.764 203.03 297.601 203.413 297.366 203.839C297.176 204.187 296.808 204.483 296.26 204.727C295.728 204.967 295.183 205.161 294.626 205.308C294.27 205.402 293.829 205.485 293.302 205.559C292.771 205.616 292.252 205.654 291.744 205.673C291.856 205.974 292.013 206.255 292.215 206.516C292.416 206.777 292.623 206.963 292.834 207.073C293.221 207.285 293.587 207.386 293.932 207.378C294.293 207.365 294.736 207.29 295.262 207.151C295.819 207.003 296.313 206.774 296.743 206.461C297.093 206.22 297.392 206.066 297.639 206.001C297.933 205.923 298.182 205.957 298.386 206.101C298.585 206.231 298.722 206.435 298.796 206.713C298.898 207.1 298.757 207.476 298.374 207.842C297.991 208.208 297.522 208.531 296.967 208.81C296.423 209.07 295.973 209.246 295.618 209.34C294.891 209.533 294.152 209.587 293.402 209.504C292.652 209.421 291.989 209.199 291.414 208.838C290.928 208.503 290.497 208.063 290.121 207.516C289.741 206.955 289.459 206.326 289.275 205.63ZM293.505 201.161C293.165 201.251 292.843 201.41 292.539 201.639C292.232 201.853 292 202.105 291.845 202.394C291.644 202.761 291.514 203.052 291.455 203.266C291.407 203.461 291.409 203.717 291.46 204.035C291.879 204.056 292.7 203.906 293.922 203.583C294.587 203.407 295.071 203.171 295.374 202.876C295.692 202.577 295.808 202.265 295.722 201.94C295.636 201.615 295.357 201.374 294.886 201.218C294.414 201.061 293.954 201.042 293.505 201.161Z" fill="white"/>
<path d="M278.168 198.066C278.462 197.988 278.745 197.996 279.018 198.089C279.306 198.178 279.525 198.41 279.673 198.785C280.182 199.958 280.621 201.149 280.991 202.359C281.371 203.549 281.764 204.91 282.169 206.441C282.341 207.091 282.599 208.289 282.945 210.034C283.642 209.916 284.176 209.808 284.547 209.71C284.81 209.64 285.395 209.444 286.303 209.122C286.824 208.901 287.286 208.738 287.688 208.632C288.059 208.533 288.41 208.482 288.739 208.478C289.065 208.458 289.411 208.482 289.777 208.551C290.151 208.651 290.389 208.894 290.491 209.281C290.573 209.59 290.546 209.895 290.41 210.196C290.29 210.492 290.098 210.676 289.835 210.745C289.65 210.794 289.348 210.841 288.929 210.885C288.173 210.969 287.463 211.099 286.798 211.275C286.581 211.332 286.338 211.413 286.068 211.517C285.809 211.602 285.617 211.661 285.494 211.694C285.135 211.839 284.769 211.96 284.398 212.058C283.64 212.258 282.949 212.4 282.326 212.482C282.008 212.533 281.668 212.498 281.306 212.379C280.939 212.244 280.702 211.976 280.596 211.573C280.535 211.341 280.408 210.738 280.217 209.762C279.904 208.14 279.637 206.912 279.416 206.076C279.245 205.427 279.034 204.754 278.784 204.059C278.534 203.364 278.377 202.926 278.312 202.744C277.825 201.466 277.469 200.402 277.245 199.551C277.138 199.149 277.153 198.83 277.29 198.595C277.442 198.357 277.735 198.18 278.168 198.066Z" fill="white"/>
</svg>
